  0
SECTION
  2
HEADER
  9
$ANGBASE
  50
0.0
  9
$ANGDIR
  70
1
  9
$MEASUREMENT
  70
0
  0
ENDSEC
  0
SECTION
  2
TABLES
  0
TABLE
  2
LTYPE
  70
4
  0
LTYPE
  5
40F
  2
CONTINUOUS
  70
0
  3
Solid line
  72
65
  73
0
  40
0.0
  0
LTYPE
  5
410
  2
DASHDOT
 70
0
  3
Dash Dot ____ _ ____ _
 72
65
 73
4
 40
2.0
 49
1.25
 49
-0.25
 49
0.25
 49
-0.25
  0
LTYPE
  5
411
  2
DASHED
 70
0
  3
Dashed __ __ __ __ __
 72
65
 73
2
 40
0.75
 49
0.5
 49
-0.25
  0
LTYPE
  5
43B
  2
DOTTED
 70
0
  3
Dotted .  .  .  .
 72
65
 73
2
 40
0.2
 49
0.0
 49
-0.2
  0
ENDTAB
  0
TABLE
  2
STYLE
  70
4
  0
STYLE
  2
KICAD
  70
0
  40
0
  41
1
  42
1
  50
0
  71
0
  3
isocp.shx
  0
STYLE
  2
KICADB
  70
0
  40
0
  41
1
  42
1
  50
0
  71
0
  3
isocp.shx
  0
STYLE
  2
KICADI
  70
0
  40
0
  41
1
  42
1
  50
15
  71
0
  3
isocp.shx
  0
STYLE
  2
KICADBI
  70
0
  40
0
  41
1
  42
1
  50
15
  71
0
  3
isocp.shx
  0
ENDTAB
  0
TABLE
  2
LAYER
  70
1
  0
LAYER
  2
BLACK
  70
0
  62
7
  6
CONTINUOUS
  0
ENDTAB
  0
ENDSEC
  0
SECTION
  2
ENTITIES
0
LINE
8
BLACK
6
CONTINUOUS
10
6.87114
20
-5.17203
11
6.98024
21
-5.23502
0
LINE
8
BLACK
6
CONTINUOUS
10
6.98024
20
-5.23502
11
6.9807
21
-5.23562
0
LINE
8
BLACK
6
CONTINUOUS
10
6.9807
20
-5.23562
11
6.9806
21
-5.23636
0
LINE
8
BLACK
6
CONTINUOUS
10
6.9806
20
-5.23636
11
6.9806
21
-5.23636
0
LINE
8
BLACK
6
CONTINUOUS
10
6.9806
20
-5.23636
11
6.90974
21
-5.35911
0
LINE
8
BLACK
6
CONTINUOUS
10
6.90974
20
-5.35911
11
6.90914
21
-5.35957
0
LINE
8
BLACK
6
CONTINUOUS
10
6.90914
20
-5.35957
11
6.90839
21
-5.35947
0
LINE
8
BLACK
6
CONTINUOUS
10
6.90839
20
-5.35947
11
6.79929
21
-5.29648
0
LINE
8
BLACK
6
CONTINUOUS
10
6.79929
20
-5.29648
11
6.79883
21
-5.29588
0
LINE
8
BLACK
6
CONTINUOUS
10
6.79883
20
-5.29588
11
6.79893
21
-5.29513
0
LINE
8
BLACK
6
CONTINUOUS
10
6.79893
20
-5.29513
11
6.86979
21
-5.17239
0
LINE
8
BLACK
6
CONTINUOUS
10
6.86979
20
-5.17239
11
6.87039
21
-5.17193
0
LINE
8
BLACK
6
CONTINUOUS
10
6.87039
20
-5.17193
11
6.87114
21
-5.17203
0
LINE
8
BLACK
6
CONTINUOUS
10
6.80112
20
-5.29526
11
6.90852
21
-5.35727
0
LINE
8
BLACK
6
CONTINUOUS
10
6.90852
20
-5.35727
11
6.97841
21
-5.23623
0
LINE
8
BLACK
6
CONTINUOUS
10
6.97841
20
-5.23623
11
6.871
21
-5.17422
0
LINE
8
BLACK
6
CONTINUOUS
10
6.871
20
-5.17422
11
6.80112
21
-5.29526
0
LINE
8
BLACK
6
CONTINUOUS
10
6.33765
20
-4.97777
11
6.33824
21
-4.97823
0
LINE
8
BLACK
6
CONTINUOUS
10
6.33824
20
-4.97823
11
6.33834
21
-4.97898
0
LINE
8
BLACK
6
CONTINUOUS
10
6.33834
20
-4.97898
11
6.30573
21
-5.10067
0
LINE
8
BLACK
6
CONTINUOUS
10
6.30573
20
-5.10067
11
6.30528
21
-5.10127
0
LINE
8
BLACK
6
CONTINUOUS
10
6.30528
20
-5.10127
11
6.30453
21
-5.10137
0
LINE
8
BLACK
6
CONTINUOUS
10
6.30453
20
-5.10137
11
6.30453
21
-5.10137
0
LINE
8
BLACK
6
CONTINUOUS
10
6.30453
20
-5.10137
11
6.30453
21
-5.10137
0
LINE
8
BLACK
6
CONTINUOUS
10
6.30453
20
-5.10137
11
6.16763
21
-5.06468
0
LINE
8
BLACK
6
CONTINUOUS
10
6.16763
20
-5.06468
11
6.16703
21
-5.06422
0
LINE
8
BLACK
6
CONTINUOUS
10
6.16703
20
-5.06422
11
6.16693
21
-5.06348
0
LINE
8
BLACK
6
CONTINUOUS
10
6.16693
20
-5.06348
11
6.19954
21
-4.94179
0
LINE
8
BLACK
6
CONTINUOUS
10
6.19954
20
-4.94179
11
6.2
21
-4.94119
0
LINE
8
BLACK
6
CONTINUOUS
10
6.2
20
-4.94119
11
6.20074
21
-4.94109
0
LINE
8
BLACK
6
CONTINUOUS
10
6.20074
20
-4.94109
11
6.33765
21
-4.97777
0
LINE
8
BLACK
6
CONTINUOUS
10
6.16909
20
-5.06304
11
6.30409
21
-5.09921
0
LINE
8
BLACK
6
CONTINUOUS
10
6.30409
20
-5.09921
11
6.33618
21
-4.97942
0
LINE
8
BLACK
6
CONTINUOUS
10
6.33618
20
-4.97942
11
6.20118
21
-4.94325
0
LINE
8
BLACK
6
CONTINUOUS
10
6.20118
20
-4.94325
11
6.16909
21
-5.06304
0
LINE
8
BLACK
6
CONTINUOUS
10
5.44567
20
-4.84154
11
5.44637
21
-4.84182
0
LINE
8
BLACK
6
CONTINUOUS
10
5.44637
20
-4.84182
11
5.44665
21
-4.84252
0
LINE
8
BLACK
6
CONTINUOUS
10
5.44665
20
-4.84252
11
5.44665
21
-4.9685
0
LINE
8
BLACK
6
CONTINUOUS
10
5.44665
20
-4.9685
11
5.44637
21
-4.9692
0
LINE
8
BLACK
6
CONTINUOUS
10
5.44637
20
-4.9692
11
5.44567
21
-4.96949
0
LINE
8
BLACK
6
CONTINUOUS
10
5.44567
20
-4.96949
11
5.30394
21
-4.96949
0
LINE
8
BLACK
6
CONTINUOUS
10
5.30394
20
-4.96949
11
5.30324
21
-4.9692
0
LINE
8
BLACK
6
CONTINUOUS
10
5.30324
20
-4.9692
11
5.30295
21
-4.9685
0
LINE
8
BLACK
6
CONTINUOUS
10
5.30295
20
-4.9685
11
5.30295
21
-4.84252
0
LINE
8
BLACK
6
CONTINUOUS
10
5.30295
20
-4.84252
11
5.30324
21
-4.84182
0
LINE
8
BLACK
6
CONTINUOUS
10
5.30324
20
-4.84182
11
5.30394
21
-4.84154
0
LINE
8
BLACK
6
CONTINUOUS
10
5.30394
20
-4.84154
11
5.44567
21
-4.84154
0
LINE
8
BLACK
6
CONTINUOUS
10
5.30492
20
-4.8435
11
5.30492
21
-4.96752
0
LINE
8
BLACK
6
CONTINUOUS
10
5.30492
20
-4.96752
11
5.44469
21
-4.96752
0
LINE
8
BLACK
6
CONTINUOUS
10
5.44469
20
-4.96752
11
5.44469
21
-4.8435
0
LINE
8
BLACK
6
CONTINUOUS
10
5.44469
20
-4.8435
11
5.30492
21
-4.8435
0
LINE
8
BLACK
6
CONTINUOUS
10
3.13795
20
-3.81742
11
3.14278
21
-3.81995
0
LINE
8
BLACK
6
CONTINUOUS
10
3.14278
20
-3.81995
11
3.14687
21
-3.82357
0
LINE
8
BLACK
6
CONTINUOUS
10
3.14687
20
-3.82357
11
3.14997
21
-3.82806
0
LINE
8
BLACK
6
CONTINUOUS
10
3.14997
20
-3.82806
11
3.1519
21
-3.83317
0
LINE
8
BLACK
6
CONTINUOUS
10
3.1519
20
-3.83317
11
3.15256
21
-3.83858
0
LINE
8
BLACK
6
CONTINUOUS
10
3.15256
20
-3.83858
11
3.15256
21
-3.83858
0
LINE
8
BLACK
6
CONTINUOUS
10
3.15256
20
-3.83858
11
3.15256
21
-4.4685
0
LINE
8
BLACK
6
CONTINUOUS
10
3.15256
20
-4.4685
11
3.1519
21
-4.47392
0
LINE
8
BLACK
6
CONTINUOUS
10
3.1519
20
-4.47392
11
3.14997
21
-4.47902
0
LINE
8
BLACK
6
CONTINUOUS
10
3.14997
20
-4.47902
11
3.14687
21
-4.48352
0
LINE
8
BLACK
6
CONTINUOUS
10
3.14687
20
-4.48352
11
3.14278
21
-4.48713
0
LINE
8
BLACK
6
CONTINUOUS
10
3.14278
20
-4.48713
11
3.13795
21
-4.48967
0
LINE
8
BLACK
6
CONTINUOUS
10
3.13795
20
-4.48967
11
3.13265
21
-4.49098
0
LINE
8
BLACK
6
CONTINUOUS
10
3.13265
20
-4.49098
11
3.12719
21
-4.49098
0
LINE
8
BLACK
6
CONTINUOUS
10
3.12719
20
-4.49098
11
3.12189
21
-4.48967
0
LINE
8
BLACK
6
CONTINUOUS
10
3.12189
20
-4.48967
11
3.11706
21
-4.48713
0
LINE
8
BLACK
6
CONTINUOUS
10
3.11706
20
-4.48713
11
3.11298
21
-4.48352
0
LINE
8
BLACK
6
CONTINUOUS
10
3.11298
20
-4.48352
11
3.10988
21
-4.47902
0
LINE
8
BLACK
6
CONTINUOUS
10
3.10988
20
-4.47902
11
3.10794
21
-4.47392
0
LINE
8
BLACK
6
CONTINUOUS
10
3.10794
20
-4.47392
11
3.10728
21
-4.4685
0
LINE
8
BLACK
6
CONTINUOUS
10
3.10728
20
-4.4685
11
3.10728
21
-3.83858
0
LINE
8
BLACK
6
CONTINUOUS
10
3.10728
20
-3.83858
11
3.10728
21
-3.83858
0
LINE
8
BLACK
6
CONTINUOUS
10
3.10728
20
-3.83858
11
3.10794
21
-3.83317
0
LINE
8
BLACK
6
CONTINUOUS
10
3.10794
20
-3.83317
11
3.10988
21
-3.82806
0
LINE
8
BLACK
6
CONTINUOUS
10
3.10988
20
-3.82806
11
3.11298
21
-3.82357
0
LINE
8
BLACK
6
CONTINUOUS
10
3.11298
20
-3.82357
11
3.11706
21
-3.81995
0
LINE
8
BLACK
6
CONTINUOUS
10
3.11706
20
-3.81995
11
3.12189
21
-3.81742
0
LINE
8
BLACK
6
CONTINUOUS
10
3.12189
20
-3.81742
11
3.12719
21
-3.81611
0
LINE
8
BLACK
6
CONTINUOUS
10
3.12719
20
-3.81611
11
3.13265
21
-3.81611
0
LINE
8
BLACK
6
CONTINUOUS
10
3.13265
20
-3.81611
11
3.13795
21
-3.81742
0
LINE
8
BLACK
6
CONTINUOUS
10
3.12516
20
-3.82236
11
3.12078
21
-3.82436
0
LINE
8
BLACK
6
CONTINUOUS
10
3.12078
20
-3.82436
11
3.11715
21
-3.82751
0
LINE
8
BLACK
6
CONTINUOUS
10
3.11715
20
-3.82751
11
3.11454
21
-3.83156
0
LINE
8
BLACK
6
CONTINUOUS
10
3.11454
20
-3.83156
11
3.11319
21
-3.83618
0
LINE
8
BLACK
6
CONTINUOUS
10
3.11319
20
-3.83618
11
3.11319
21
-3.83858
0
LINE
8
BLACK
6
CONTINUOUS
10
3.11319
20
-3.83858
11
3.11319
21
-4.4685
0
LINE
8
BLACK
6
CONTINUOUS
10
3.11319
20
-4.4685
11
3.11319
21
-4.47091
0
LINE
8
BLACK
6
CONTINUOUS
10
3.11319
20
-4.47091
11
3.11454
21
-4.47553
0
LINE
8
BLACK
6
CONTINUOUS
10
3.11454
20
-4.47553
11
3.11715
21
-4.47957
0
LINE
8
BLACK
6
CONTINUOUS
10
3.11715
20
-4.47957
11
3.12078
21
-4.48272
0
LINE
8
BLACK
6
CONTINUOUS
10
3.12078
20
-4.48272
11
3.12516
21
-4.48472
0
LINE
8
BLACK
6
CONTINUOUS
10
3.12516
20
-4.48472
11
3.12992
21
-4.48541
0
LINE
8
BLACK
6
CONTINUOUS
10
3.12992
20
-4.48541
11
3.13468
21
-4.48472
0
LINE
8
BLACK
6
CONTINUOUS
10
3.13468
20
-4.48472
11
3.13906
21
-4.48272
0
LINE
8
BLACK
6
CONTINUOUS
10
3.13906
20
-4.48272
11
3.1427
21
-4.47957
0
LINE
8
BLACK
6
CONTINUOUS
10
3.1427
20
-4.47957
11
3.1453
21
-4.47553
0
LINE
8
BLACK
6
CONTINUOUS
10
3.1453
20
-4.47553
11
3.14665
21
-4.47091
0
LINE
8
BLACK
6
CONTINUOUS
10
3.14665
20
-4.47091
11
3.14665
21
-4.4685
0
LINE
8
BLACK
6
CONTINUOUS
10
3.14665
20
-4.4685
11
3.14665
21
-3.83858
0
LINE
8
BLACK
6
CONTINUOUS
10
3.14665
20
-3.83858
11
3.14665
21
-3.83618
0
LINE
8
BLACK
6
CONTINUOUS
10
3.14665
20
-3.83618
11
3.1453
21
-3.83156
0
LINE
8
BLACK
6
CONTINUOUS
10
3.1453
20
-3.83156
11
3.1427
21
-3.82751
0
LINE
8
BLACK
6
CONTINUOUS
10
3.1427
20
-3.82751
11
3.13906
21
-3.82436
0
LINE
8
BLACK
6
CONTINUOUS
10
3.13906
20
-3.82436
11
3.13468
21
-3.82236
0
LINE
8
BLACK
6
CONTINUOUS
10
3.13468
20
-3.82236
11
3.12992
21
-3.82168
0
LINE
8
BLACK
6
CONTINUOUS
10
3.12992
20
-3.82168
11
3.12516
21
-3.82236
0
LINE
8
BLACK
6
CONTINUOUS
10
2.82756
20
-4.25591
11
2.82826
21
-4.25619
0
LINE
8
BLACK
6
CONTINUOUS
10
2.82826
20
-4.25619
11
2.82854
21
-4.25689
0
LINE
8
BLACK
6
CONTINUOUS
10
2.82854
20
-4.25689
11
2.82854
21
-4.38287
0
LINE
8
BLACK
6
CONTINUOUS
10
2.82854
20
-4.38287
11
2.82826
21
-4.38357
0
LINE
8
BLACK
6
CONTINUOUS
10
2.82826
20
-4.38357
11
2.82756
21
-4.38386
0
LINE
8
BLACK
6
CONTINUOUS
10
2.82756
20
-4.38386
11
2.68583
21
-4.38386
0
LINE
8
BLACK
6
CONTINUOUS
10
2.68583
20
-4.38386
11
2.68513
21
-4.38357
0
LINE
8
BLACK
6
CONTINUOUS
10
2.68513
20
-4.38357
11
2.68484
21
-4.38287
0
LINE
8
BLACK
6
CONTINUOUS
10
2.68484
20
-4.38287
11
2.68484
21
-4.25689
0
LINE
8
BLACK
6
CONTINUOUS
10
2.68484
20
-4.25689
11
2.68513
21
-4.25619
0
LINE
8
BLACK
6
CONTINUOUS
10
2.68513
20
-4.25619
11
2.68583
21
-4.25591
0
LINE
8
BLACK
6
CONTINUOUS
10
2.68583
20
-4.25591
11
2.82756
21
-4.25591
0
LINE
8
BLACK
6
CONTINUOUS
10
2.68681
20
-4.25787
11
2.68681
21
-4.38189
0
LINE
8
BLACK
6
CONTINUOUS
10
2.68681
20
-4.38189
11
2.82657
21
-4.38189
0
LINE
8
BLACK
6
CONTINUOUS
10
2.82657
20
-4.38189
11
2.82657
21
-4.25787
0
LINE
8
BLACK
6
CONTINUOUS
10
2.82657
20
-4.25787
11
2.68681
21
-4.25787
0
LINE
8
BLACK
6
CONTINUOUS
10
3.57559
20
-4.25591
11
3.57629
21
-4.25619
0
LINE
8
BLACK
6
CONTINUOUS
10
3.57629
20
-4.25619
11
3.57657
21
-4.25689
0
LINE
8
BLACK
6
CONTINUOUS
10
3.57657
20
-4.25689
11
3.57657
21
-4.38287
0
LINE
8
BLACK
6
CONTINUOUS
10
3.57657
20
-4.38287
11
3.57629
21
-4.38357
0
LINE
8
BLACK
6
CONTINUOUS
10
3.57629
20
-4.38357
11
3.57559
21
-4.38386
0
LINE
8
BLACK
6
CONTINUOUS
10
3.57559
20
-4.38386
11
3.43386
21
-4.38386
0
LINE
8
BLACK
6
CONTINUOUS
10
3.43386
20
-4.38386
11
3.43316
21
-4.38357
0
LINE
8
BLACK
6
CONTINUOUS
10
3.43316
20
-4.38357
11
3.43287
21
-4.38287
0
LINE
8
BLACK
6
CONTINUOUS
10
3.43287
20
-4.38287
11
3.43287
21
-4.25689
0
LINE
8
BLACK
6
CONTINUOUS
10
3.43287
20
-4.25689
11
3.43316
21
-4.25619
0
LINE
8
BLACK
6
CONTINUOUS
10
3.43316
20
-4.25619
11
3.43386
21
-4.25591
0
LINE
8
BLACK
6
CONTINUOUS
10
3.43386
20
-4.25591
11
3.57559
21
-4.25591
0
LINE
8
BLACK
6
CONTINUOUS
10
3.43484
20
-4.25787
11
3.43484
21
-4.38189
0
LINE
8
BLACK
6
CONTINUOUS
10
3.43484
20
-4.38189
11
3.57461
21
-4.38189
0
LINE
8
BLACK
6
CONTINUOUS
10
3.57461
20
-4.38189
11
3.57461
21
-4.25787
0
LINE
8
BLACK
6
CONTINUOUS
10
3.57461
20
-4.25787
11
3.43484
21
-4.25787
0
LINE
8
BLACK
6
CONTINUOUS
10
6.57165
20
-4.1624
11
6.57235
21
-4.16269
0
LINE
8
BLACK
6
CONTINUOUS
10
6.57235
20
-4.16269
11
6.57264
21
-4.16339
0
LINE
8
BLACK
6
CONTINUOUS
10
6.57264
20
-4.16339
11
6.57264
21
-4.28937
0
LINE
8
BLACK
6
CONTINUOUS
10
6.57264
20
-4.28937
11
6.57235
21
-4.29007
0
LINE
8
BLACK
6
CONTINUOUS
10
6.57235
20
-4.29007
11
6.57165
21
-4.29035
0
LINE
8
BLACK
6
CONTINUOUS
10
6.57165
20
-4.29035
11
6.42992
21
-4.29035
0
LINE
8
BLACK
6
CONTINUOUS
10
6.42992
20
-4.29035
11
6.42923
21
-4.29007
0
LINE
8
BLACK
6
CONTINUOUS
10
6.42923
20
-4.29007
11
6.42894
21
-4.28937
0
LINE
8
BLACK
6
CONTINUOUS
10
6.42894
20
-4.28937
11
6.42894
21
-4.16339
0
LINE
8
BLACK
6
CONTINUOUS
10
6.42894
20
-4.16339
11
6.42923
21
-4.16269
0
LINE
8
BLACK
6
CONTINUOUS
10
6.42923
20
-4.16269
11
6.42992
21
-4.1624
0
LINE
8
BLACK
6
CONTINUOUS
10
6.42992
20
-4.1624
11
6.57165
21
-4.1624
0
LINE
8
BLACK
6
CONTINUOUS
10
6.43091
20
-4.16437
11
6.43091
21
-4.28839
0
LINE
8
BLACK
6
CONTINUOUS
10
6.43091
20
-4.28839
11
6.57067
21
-4.28839
0
LINE
8
BLACK
6
CONTINUOUS
10
6.57067
20
-4.28839
11
6.57067
21
-4.16437
0
LINE
8
BLACK
6
CONTINUOUS
10
6.57067
20
-4.16437
11
6.43091
21
-4.16437
0
LINE
8
BLACK
6
CONTINUOUS
10
4.32362
20
-4.0689
11
4.32432
21
-4.06919
0
LINE
8
BLACK
6
CONTINUOUS
10
4.32432
20
-4.06919
11
4.32461
21
-4.06988
0
LINE
8
BLACK
6
CONTINUOUS
10
4.32461
20
-4.06988
11
4.32461
21
-4.19587
0
LINE
8
BLACK
6
CONTINUOUS
10
4.32461
20
-4.19587
11
4.32432
21
-4.19656
0
LINE
8
BLACK
6
CONTINUOUS
10
4.32432
20
-4.19656
11
4.32362
21
-4.19685
0
LINE
8
BLACK
6
CONTINUOUS
10
4.32362
20
-4.19685
11
4.18189
21
-4.19685
0
LINE
8
BLACK
6
CONTINUOUS
10
4.18189
20
-4.19685
11
4.18119
21
-4.19656
0
LINE
8
BLACK
6
CONTINUOUS
10
4.18119
20
-4.19656
11
4.18091
21
-4.19587
0
LINE
8
BLACK
6
CONTINUOUS
10
4.18091
20
-4.19587
11
4.18091
21
-4.06988
0
LINE
8
BLACK
6
CONTINUOUS
10
4.18091
20
-4.06988
11
4.18119
21
-4.06919
0
LINE
8
BLACK
6
CONTINUOUS
10
4.18119
20
-4.06919
11
4.18189
21
-4.0689
0
LINE
8
BLACK
6
CONTINUOUS
10
4.18189
20
-4.0689
11
4.32362
21
-4.0689
0
LINE
8
BLACK
6
CONTINUOUS
10
4.18287
20
-4.07087
11
4.18287
21
-4.19488
0
LINE
8
BLACK
6
CONTINUOUS
10
4.18287
20
-4.19488
11
4.32264
21
-4.19488
0
LINE
8
BLACK
6
CONTINUOUS
10
4.32264
20
-4.19488
11
4.32264
21
-4.07087
0
LINE
8
BLACK
6
CONTINUOUS
10
4.32264
20
-4.07087
11
4.18287
21
-4.07087
0
LINE
8
BLACK
6
CONTINUOUS
10
5.81969
20
-4.0689
11
5.82038
21
-4.06919
0
LINE
8
BLACK
6
CONTINUOUS
10
5.82038
20
-4.06919
11
5.82067
21
-4.06988
0
LINE
8
BLACK
6
CONTINUOUS
10
5.82067
20
-4.06988
11
5.82067
21
-4.19587
0
LINE
8
BLACK
6
CONTINUOUS
10
5.82067
20
-4.19587
11
5.82038
21
-4.19656
0
LINE
8
BLACK
6
CONTINUOUS
10
5.82038
20
-4.19656
11
5.81969
21
-4.19685
0
LINE
8
BLACK
6
CONTINUOUS
10
5.81969
20
-4.19685
11
5.67795
21
-4.19685
0
LINE
8
BLACK
6
CONTINUOUS
10
5.67795
20
-4.19685
11
5.67726
21
-4.19656
0
LINE
8
BLACK
6
CONTINUOUS
10
5.67726
20
-4.19656
11
5.67697
21
-4.19587
0
LINE
8
BLACK
6
CONTINUOUS
10
5.67697
20
-4.19587
11
5.67697
21
-4.06988
0
LINE
8
BLACK
6
CONTINUOUS
10
5.67697
20
-4.06988
11
5.67726
21
-4.06919
0
LINE
8
BLACK
6
CONTINUOUS
10
5.67726
20
-4.06919
11
5.67795
21
-4.0689
0
LINE
8
BLACK
6
CONTINUOUS
10
5.67795
20
-4.0689
11
5.81969
21
-4.0689
0
LINE
8
BLACK
6
CONTINUOUS
10
5.67894
20
-4.07087
11
5.67894
21
-4.19488
0
LINE
8
BLACK
6
CONTINUOUS
10
5.67894
20
-4.19488
11
5.8187
21
-4.19488
0
LINE
8
BLACK
6
CONTINUOUS
10
5.8187
20
-4.19488
11
5.8187
21
-4.07087
0
LINE
8
BLACK
6
CONTINUOUS
10
5.8187
20
-4.07087
11
5.67894
21
-4.07087
0
LINE
8
BLACK
6
CONTINUOUS
10
5.07165
20
-3.97539
11
5.07235
21
-3.97568
0
LINE
8
BLACK
6
CONTINUOUS
10
5.07235
20
-3.97568
11
5.07264
21
-3.97638
0
LINE
8
BLACK
6
CONTINUOUS
10
5.07264
20
-3.97638
11
5.07264
21
-4.10236
0
LINE
8
BLACK
6
CONTINUOUS
10
5.07264
20
-4.10236
11
5.07235
21
-4.10306
0
LINE
8
BLACK
6
CONTINUOUS
10
5.07235
20
-4.10306
11
5.07165
21
-4.10335
0
LINE
8
BLACK
6
CONTINUOUS
10
5.07165
20
-4.10335
11
4.92992
21
-4.10335
0
LINE
8
BLACK
6
CONTINUOUS
10
4.92992
20
-4.10335
11
4.92923
21
-4.10306
0
LINE
8
BLACK
6
CONTINUOUS
10
4.92923
20
-4.10306
11
4.92894
21
-4.10236
0
LINE
8
BLACK
6
CONTINUOUS
10
4.92894
20
-4.10236
11
4.92894
21
-3.97638
0
LINE
8
BLACK
6
CONTINUOUS
10
4.92894
20
-3.97638
11
4.92923
21
-3.97568
0
LINE
8
BLACK
6
CONTINUOUS
10
4.92923
20
-3.97568
11
4.92992
21
-3.97539
0
LINE
8
BLACK
6
CONTINUOUS
10
4.92992
20
-3.97539
11
5.07165
21
-3.97539
0
LINE
8
BLACK
6
CONTINUOUS
10
4.93091
20
-3.97736
11
4.93091
21
-4.10138
0
LINE
8
BLACK
6
CONTINUOUS
10
4.93091
20
-4.10138
11
5.07067
21
-4.10138
0
LINE
8
BLACK
6
CONTINUOUS
10
5.07067
20
-4.10138
11
5.07067
21
-3.97736
0
LINE
8
BLACK
6
CONTINUOUS
10
5.07067
20
-3.97736
11
4.93091
21
-3.97736
0
LINE
8
BLACK
6
CONTINUOUS
10
3.13795
20
-3.06545
11
3.14278
21
-3.06798
0
LINE
8
BLACK
6
CONTINUOUS
10
3.14278
20
-3.06798
11
3.14687
21
-3.0716
0
LINE
8
BLACK
6
CONTINUOUS
10
3.14687
20
-3.0716
11
3.14997
21
-3.07609
0
LINE
8
BLACK
6
CONTINUOUS
10
3.14997
20
-3.07609
11
3.1519
21
-3.0812
0
LINE
8
BLACK
6
CONTINUOUS
10
3.1519
20
-3.0812
11
3.15256
21
-3.08661
0
LINE
8
BLACK
6
CONTINUOUS
10
3.15256
20
-3.08661
11
3.15256
21
-3.72047
0
LINE
8
BLACK
6
CONTINUOUS
10
3.15256
20
-3.72047
11
3.1519
21
-3.72589
0
LINE
8
BLACK
6
CONTINUOUS
10
3.1519
20
-3.72589
11
3.14997
21
-3.73099
0
LINE
8
BLACK
6
CONTINUOUS
10
3.14997
20
-3.73099
11
3.14687
21
-3.73548
0
LINE
8
BLACK
6
CONTINUOUS
10
3.14687
20
-3.73548
11
3.14278
21
-3.7391
0
LINE
8
BLACK
6
CONTINUOUS
10
3.14278
20
-3.7391
11
3.13795
21
-3.74164
0
LINE
8
BLACK
6
CONTINUOUS
10
3.13795
20
-3.74164
11
3.13265
21
-3.74295
0
LINE
8
BLACK
6
CONTINUOUS
10
3.13265
20
-3.74295
11
3.12719
21
-3.74295
0
LINE
8
BLACK
6
CONTINUOUS
10
3.12719
20
-3.74295
11
3.12189
21
-3.74164
0
LINE
8
BLACK
6
CONTINUOUS
10
3.12189
20
-3.74164
11
3.11706
21
-3.7391
0
LINE
8
BLACK
6
CONTINUOUS
10
3.11706
20
-3.7391
11
3.11298
21
-3.73548
0
LINE
8
BLACK
6
CONTINUOUS
10
3.11298
20
-3.73548
11
3.10988
21
-3.73099
0
LINE
8
BLACK
6
CONTINUOUS
10
3.10988
20
-3.73099
11
3.10794
21
-3.72589
0
LINE
8
BLACK
6
CONTINUOUS
10
3.10794
20
-3.72589
11
3.10728
21
-3.72047
0
LINE
8
BLACK
6
CONTINUOUS
10
3.10728
20
-3.72047
11
3.10728
21
-3.08661
0
LINE
8
BLACK
6
CONTINUOUS
10
3.10728
20
-3.08661
11
3.10794
21
-3.0812
0
LINE
8
BLACK
6
CONTINUOUS
10
3.10794
20
-3.0812
11
3.10988
21
-3.07609
0
LINE
8
BLACK
6
CONTINUOUS
10
3.10988
20
-3.07609
11
3.11298
21
-3.0716
0
LINE
8
BLACK
6
CONTINUOUS
10
3.11298
20
-3.0716
11
3.11706
21
-3.06798
0
LINE
8
BLACK
6
CONTINUOUS
10
3.11706
20
-3.06798
11
3.12189
21
-3.06545
0
LINE
8
BLACK
6
CONTINUOUS
10
3.12189
20
-3.06545
11
3.12719
21
-3.06414
0
LINE
8
BLACK
6
CONTINUOUS
10
3.12719
20
-3.06414
11
3.13265
21
-3.06414
0
LINE
8
BLACK
6
CONTINUOUS
10
3.13265
20
-3.06414
11
3.13795
21
-3.06545
0
LINE
8
BLACK
6
CONTINUOUS
10
3.12516
20
-3.07039
11
3.12078
21
-3.07239
0
LINE
8
BLACK
6
CONTINUOUS
10
3.12078
20
-3.07239
11
3.11715
21
-3.07554
0
LINE
8
BLACK
6
CONTINUOUS
10
3.11715
20
-3.07554
11
3.11454
21
-3.07959
0
LINE
8
BLACK
6
CONTINUOUS
10
3.11454
20
-3.07959
11
3.11319
21
-3.08421
0
LINE
8
BLACK
6
CONTINUOUS
10
3.11319
20
-3.08421
11
3.11319
21
-3.08661
0
LINE
8
BLACK
6
CONTINUOUS
10
3.11319
20
-3.08661
11
3.11319
21
-3.72047
0
LINE
8
BLACK
6
CONTINUOUS
10
3.11319
20
-3.72047
11
3.11319
21
-3.72288
0
LINE
8
BLACK
6
CONTINUOUS
10
3.11319
20
-3.72288
11
3.11454
21
-3.72749
0
LINE
8
BLACK
6
CONTINUOUS
10
3.11454
20
-3.72749
11
3.11715
21
-3.73154
0
LINE
8
BLACK
6
CONTINUOUS
10
3.11715
20
-3.73154
11
3.12078
21
-3.73469
0
LINE
8
BLACK
6
CONTINUOUS
10
3.12078
20
-3.73469
11
3.12516
21
-3.73669
0
LINE
8
BLACK
6
CONTINUOUS
10
3.12516
20
-3.73669
11
3.12992
21
-3.73738
0
LINE
8
BLACK
6
CONTINUOUS
10
3.12992
20
-3.73738
11
3.13468
21
-3.73669
0
LINE
8
BLACK
6
CONTINUOUS
10
3.13468
20
-3.73669
11
3.13906
21
-3.73469
0
LINE
8
BLACK
6
CONTINUOUS
10
3.13906
20
-3.73469
11
3.1427
21
-3.73154
0
LINE
8
BLACK
6
CONTINUOUS
10
3.1427
20
-3.73154
11
3.1453
21
-3.72749
0
LINE
8
BLACK
6
CONTINUOUS
10
3.1453
20
-3.72749
11
3.14665
21
-3.72288
0
LINE
8
BLACK
6
CONTINUOUS
10
3.14665
20
-3.72288
11
3.14665
21
-3.72047
0
LINE
8
BLACK
6
CONTINUOUS
10
3.14665
20
-3.72047
11
3.14665
21
-3.72047
0
LINE
8
BLACK
6
CONTINUOUS
10
3.14665
20
-3.72047
11
3.14665
21
-3.08661
0
LINE
8
BLACK
6
CONTINUOUS
10
3.14665
20
-3.08661
11
3.14665
21
-3.08421
0
LINE
8
BLACK
6
CONTINUOUS
10
3.14665
20
-3.08421
11
3.1453
21
-3.07959
0
LINE
8
BLACK
6
CONTINUOUS
10
3.1453
20
-3.07959
11
3.1427
21
-3.07554
0
LINE
8
BLACK
6
CONTINUOUS
10
3.1427
20
-3.07554
11
3.13906
21
-3.07239
0
LINE
8
BLACK
6
CONTINUOUS
10
3.13906
20
-3.07239
11
3.13468
21
-3.07039
0
LINE
8
BLACK
6
CONTINUOUS
10
3.13468
20
-3.07039
11
3.12992
21
-3.06971
0
LINE
8
BLACK
6
CONTINUOUS
10
3.12992
20
-3.06971
11
3.12516
21
-3.07039
0
LINE
8
BLACK
6
CONTINUOUS
10
2.82756
20
-3.50787
11
2.82826
21
-3.50816
0
LINE
8
BLACK
6
CONTINUOUS
10
2.82826
20
-3.50816
11
2.82854
21
-3.50886
0
LINE
8
BLACK
6
CONTINUOUS
10
2.82854
20
-3.50886
11
2.82854
21
-3.63484
0
LINE
8
BLACK
6
CONTINUOUS
10
2.82854
20
-3.63484
11
2.82826
21
-3.63554
0
LINE
8
BLACK
6
CONTINUOUS
10
2.82826
20
-3.63554
11
2.82756
21
-3.63583
0
LINE
8
BLACK
6
CONTINUOUS
10
2.82756
20
-3.63583
11
2.68583
21
-3.63583
0
LINE
8
BLACK
6
CONTINUOUS
10
2.68583
20
-3.63583
11
2.68513
21
-3.63554
0
LINE
8
BLACK
6
CONTINUOUS
10
2.68513
20
-3.63554
11
2.68484
21
-3.63484
0
LINE
8
BLACK
6
CONTINUOUS
10
2.68484
20
-3.63484
11
2.68484
21
-3.50886
0
LINE
8
BLACK
6
CONTINUOUS
10
2.68484
20
-3.50886
11
2.68513
21
-3.50816
0
LINE
8
BLACK
6
CONTINUOUS
10
2.68513
20
-3.50816
11
2.68583
21
-3.50787
0
LINE
8
BLACK
6
CONTINUOUS
10
2.68583
20
-3.50787
11
2.82756
21
-3.50787
0
LINE
8
BLACK
6
CONTINUOUS
10
2.68681
20
-3.50984
11
2.68681
21
-3.63386
0
LINE
8
BLACK
6
CONTINUOUS
10
2.68681
20
-3.63386
11
2.82657
21
-3.63386
0
LINE
8
BLACK
6
CONTINUOUS
10
2.82657
20
-3.63386
11
2.82657
21
-3.50984
0
LINE
8
BLACK
6
CONTINUOUS
10
2.82657
20
-3.50984
11
2.68681
21
-3.50984
0
LINE
8
BLACK
6
CONTINUOUS
10
3.57559
20
-3.50787
11
3.57629
21
-3.50816
0
LINE
8
BLACK
6
CONTINUOUS
10
3.57629
20
-3.50816
11
3.57657
21
-3.50886
0
LINE
8
BLACK
6
CONTINUOUS
10
3.57657
20
-3.50886
11
3.57657
21
-3.63484
0
LINE
8
BLACK
6
CONTINUOUS
10
3.57657
20
-3.63484
11
3.57629
21
-3.63554
0
LINE
8
BLACK
6
CONTINUOUS
10
3.57629
20
-3.63554
11
3.57559
21
-3.63583
0
LINE
8
BLACK
6
CONTINUOUS
10
3.57559
20
-3.63583
11
3.43386
21
-3.63583
0
LINE
8
BLACK
6
CONTINUOUS
10
3.43386
20
-3.63583
11
3.43316
21
-3.63554
0
LINE
8
BLACK
6
CONTINUOUS
10
3.43316
20
-3.63554
11
3.43287
21
-3.63484
0
LINE
8
BLACK
6
CONTINUOUS
10
3.43287
20
-3.63484
11
3.43287
21
-3.50886
0
LINE
8
BLACK
6
CONTINUOUS
10
3.43287
20
-3.50886
11
3.43316
21
-3.50816
0
LINE
8
BLACK
6
CONTINUOUS
10
3.43316
20
-3.50816
11
3.43386
21
-3.50787
0
LINE
8
BLACK
6
CONTINUOUS
10
3.43386
20
-3.50787
11
3.57559
21
-3.50787
0
LINE
8
BLACK
6
CONTINUOUS
10
3.43484
20
-3.50984
11
3.43484
21
-3.63386
0
LINE
8
BLACK
6
CONTINUOUS
10
3.43484
20
-3.63386
11
3.57461
21
-3.63386
0
LINE
8
BLACK
6
CONTINUOUS
10
3.57461
20
-3.63386
11
3.57461
21
-3.50984
0
LINE
8
BLACK
6
CONTINUOUS
10
3.57461
20
-3.50984
11
3.43484
21
-3.50984
0
LINE
8
BLACK
6
CONTINUOUS
10
6.56772
20
-3.41437
11
6.56841
21
-3.41466
0
LINE
8
BLACK
6
CONTINUOUS
10
6.56841
20
-3.41466
11
6.5687
21
-3.41535
0
LINE
8
BLACK
6
CONTINUOUS
10
6.5687
20
-3.41535
11
6.5687
21
-3.54134
0
LINE
8
BLACK
6
CONTINUOUS
10
6.5687
20
-3.54134
11
6.56841
21
-3.54203
0
LINE
8
BLACK
6
CONTINUOUS
10
6.56841
20
-3.54203
11
6.56772
21
-3.54232
0
LINE
8
BLACK
6
CONTINUOUS
10
6.56772
20
-3.54232
11
6.42598
21
-3.54232
0
LINE
8
BLACK
6
CONTINUOUS
10
6.42598
20
-3.54232
11
6.42529
21
-3.54203
0
LINE
8
BLACK
6
CONTINUOUS
10
6.42529
20
-3.54203
11
6.425
21
-3.54134
0
LINE
8
BLACK
6
CONTINUOUS
10
6.425
20
-3.54134
11
6.425
21
-3.41535
0
LINE
8
BLACK
6
CONTINUOUS
10
6.425
20
-3.41535
11
6.42529
21
-3.41466
0
LINE
8
BLACK
6
CONTINUOUS
10
6.42529
20
-3.41466
11
6.42598
21
-3.41437
0
LINE
8
BLACK
6
CONTINUOUS
10
6.42598
20
-3.41437
11
6.56772
21
-3.41437
0
LINE
8
BLACK
6
CONTINUOUS
10
6.42697
20
-3.41634
11
6.42697
21
-3.54035
0
LINE
8
BLACK
6
CONTINUOUS
10
6.42697
20
-3.54035
11
6.56673
21
-3.54035
0
LINE
8
BLACK
6
CONTINUOUS
10
6.56673
20
-3.54035
11
6.56673
21
-3.41634
0
LINE
8
BLACK
6
CONTINUOUS
10
6.56673
20
-3.41634
11
6.42697
21
-3.41634
0
LINE
8
BLACK
6
CONTINUOUS
10
4.32362
20
-3.32087
11
4.32432
21
-3.32115
0
LINE
8
BLACK
6
CONTINUOUS
10
4.32432
20
-3.32115
11
4.32461
21
-3.32185
0
LINE
8
BLACK
6
CONTINUOUS
10
4.32461
20
-3.32185
11
4.32461
21
-3.44783
0
LINE
8
BLACK
6
CONTINUOUS
10
4.32461
20
-3.44783
11
4.32432
21
-3.44853
0
LINE
8
BLACK
6
CONTINUOUS
10
4.32432
20
-3.44853
11
4.32362
21
-3.44882
0
LINE
8
BLACK
6
CONTINUOUS
10
4.32362
20
-3.44882
11
4.18189
21
-3.44882
0
LINE
8
BLACK
6
CONTINUOUS
10
4.18189
20
-3.44882
11
4.18119
21
-3.44853
0
LINE
8
BLACK
6
CONTINUOUS
10
4.18119
20
-3.44853
11
4.18091
21
-3.44783
0
LINE
8
BLACK
6
CONTINUOUS
10
4.18091
20
-3.44783
11
4.18091
21
-3.32185
0
LINE
8
BLACK
6
CONTINUOUS
10
4.18091
20
-3.32185
11
4.18119
21
-3.32115
0
LINE
8
BLACK
6
CONTINUOUS
10
4.18119
20
-3.32115
11
4.18189
21
-3.32087
0
LINE
8
BLACK
6
CONTINUOUS
10
4.18189
20
-3.32087
11
4.32362
21
-3.32087
0
LINE
8
BLACK
6
CONTINUOUS
10
4.18287
20
-3.32283
11
4.18287
21
-3.44685
0
LINE
8
BLACK
6
CONTINUOUS
10
4.18287
20
-3.44685
11
4.32264
21
-3.44685
0
LINE
8
BLACK
6
CONTINUOUS
10
4.32264
20
-3.44685
11
4.32264
21
-3.32283
0
LINE
8
BLACK
6
CONTINUOUS
10
4.32264
20
-3.32283
11
4.18287
21
-3.32283
0
LINE
8
BLACK
6
CONTINUOUS
10
5.81969
20
-3.32087
11
5.82038
21
-3.32115
0
LINE
8
BLACK
6
CONTINUOUS
10
5.82038
20
-3.32115
11
5.82067
21
-3.32185
0
LINE
8
BLACK
6
CONTINUOUS
10
5.82067
20
-3.32185
11
5.82067
21
-3.44783
0
LINE
8
BLACK
6
CONTINUOUS
10
5.82067
20
-3.44783
11
5.82038
21
-3.44853
0
LINE
8
BLACK
6
CONTINUOUS
10
5.82038
20
-3.44853
11
5.81969
21
-3.44882
0
LINE
8
BLACK
6
CONTINUOUS
10
5.81969
20
-3.44882
11
5.67795
21
-3.44882
0
LINE
8
BLACK
6
CONTINUOUS
10
5.67795
20
-3.44882
11
5.67726
21
-3.44853
0
LINE
8
BLACK
6
CONTINUOUS
10
5.67726
20
-3.44853
11
5.67697
21
-3.44783
0
LINE
8
BLACK
6
CONTINUOUS
10
5.67697
20
-3.44783
11
5.67697
21
-3.32185
0
LINE
8
BLACK
6
CONTINUOUS
10
5.67697
20
-3.32185
11
5.67726
21
-3.32115
0
LINE
8
BLACK
6
CONTINUOUS
10
5.67726
20
-3.32115
11
5.67795
21
-3.32087
0
LINE
8
BLACK
6
CONTINUOUS
10
5.67795
20
-3.32087
11
5.81969
21
-3.32087
0
LINE
8
BLACK
6
CONTINUOUS
10
5.67894
20
-3.32283
11
5.67894
21
-3.44685
0
LINE
8
BLACK
6
CONTINUOUS
10
5.67894
20
-3.44685
11
5.8187
21
-3.44685
0
LINE
8
BLACK
6
CONTINUOUS
10
5.8187
20
-3.44685
11
5.8187
21
-3.32283
0
LINE
8
BLACK
6
CONTINUOUS
10
5.8187
20
-3.32283
11
5.67894
21
-3.32283
0
LINE
8
BLACK
6
CONTINUOUS
10
5.07165
20
-3.22736
11
5.07235
21
-3.22765
0
LINE
8
BLACK
6
CONTINUOUS
10
5.07235
20
-3.22765
11
5.07264
21
-3.22835
0
LINE
8
BLACK
6
CONTINUOUS
10
5.07264
20
-3.22835
11
5.07264
21
-3.35433
0
LINE
8
BLACK
6
CONTINUOUS
10
5.07264
20
-3.35433
11
5.07235
21
-3.35503
0
LINE
8
BLACK
6
CONTINUOUS
10
5.07235
20
-3.35503
11
5.07165
21
-3.35531
0
LINE
8
BLACK
6
CONTINUOUS
10
5.07165
20
-3.35531
11
4.92992
21
-3.35531
0
LINE
8
BLACK
6
CONTINUOUS
10
4.92992
20
-3.35531
11
4.92923
21
-3.35503
0
LINE
8
BLACK
6
CONTINUOUS
10
4.92923
20
-3.35503
11
4.92894
21
-3.35433
0
LINE
8
BLACK
6
CONTINUOUS
10
4.92894
20
-3.35433
11
4.92894
21
-3.22835
0
LINE
8
BLACK
6
CONTINUOUS
10
4.92894
20
-3.22835
11
4.92923
21
-3.22765
0
LINE
8
BLACK
6
CONTINUOUS
10
4.92923
20
-3.22765
11
4.92992
21
-3.22736
0
LINE
8
BLACK
6
CONTINUOUS
10
4.92992
20
-3.22736
11
5.07165
21
-3.22736
0
LINE
8
BLACK
6
CONTINUOUS
10
4.93091
20
-3.22933
11
4.93091
21
-3.35335
0
LINE
8
BLACK
6
CONTINUOUS
10
4.93091
20
-3.35335
11
5.07067
21
-3.35335
0
LINE
8
BLACK
6
CONTINUOUS
10
5.07067
20
-3.35335
11
5.07067
21
-3.22933
0
LINE
8
BLACK
6
CONTINUOUS
10
5.07067
20
-3.22933
11
4.93091
21
-3.22933
0
LINE
8
BLACK
6
CONTINUOUS
10
2.82756
20
-2.75984
11
2.82826
21
-2.76013
0
LINE
8
BLACK
6
CONTINUOUS
10
2.82826
20
-2.76013
11
2.82854
21
-2.76083
0
LINE
8
BLACK
6
CONTINUOUS
10
2.82854
20
-2.76083
11
2.82854
21
-2.88681
0
LINE
8
BLACK
6
CONTINUOUS
10
2.82854
20
-2.88681
11
2.82826
21
-2.88751
0
LINE
8
BLACK
6
CONTINUOUS
10
2.82826
20
-2.88751
11
2.82756
21
-2.8878
0
LINE
8
BLACK
6
CONTINUOUS
10
2.82756
20
-2.8878
11
2.68583
21
-2.8878
0
LINE
8
BLACK
6
CONTINUOUS
10
2.68583
20
-2.8878
11
2.68513
21
-2.88751
0
LINE
8
BLACK
6
CONTINUOUS
10
2.68513
20
-2.88751
11
2.68484
21
-2.88681
0
LINE
8
BLACK
6
CONTINUOUS
10
2.68484
20
-2.88681
11
2.68484
21
-2.76083
0
LINE
8
BLACK
6
CONTINUOUS
10
2.68484
20
-2.76083
11
2.68513
21
-2.76013
0
LINE
8
BLACK
6
CONTINUOUS
10
2.68513
20
-2.76013
11
2.68583
21
-2.75984
0
LINE
8
BLACK
6
CONTINUOUS
10
2.68583
20
-2.75984
11
2.82756
21
-2.75984
0
LINE
8
BLACK
6
CONTINUOUS
10
2.68681
20
-2.76181
11
2.68681
21
-2.88583
0
LINE
8
BLACK
6
CONTINUOUS
10
2.68681
20
-2.88583
11
2.82657
21
-2.88583
0
LINE
8
BLACK
6
CONTINUOUS
10
2.82657
20
-2.88583
11
2.82657
21
-2.76181
0
LINE
8
BLACK
6
CONTINUOUS
10
2.82657
20
-2.76181
11
2.68681
21
-2.76181
0
LINE
8
BLACK
6
CONTINUOUS
10
3.57559
20
-2.75984
11
3.57629
21
-2.76013
0
LINE
8
BLACK
6
CONTINUOUS
10
3.57629
20
-2.76013
11
3.57657
21
-2.76083
0
LINE
8
BLACK
6
CONTINUOUS
10
3.57657
20
-2.76083
11
3.57657
21
-2.88681
0
LINE
8
BLACK
6
CONTINUOUS
10
3.57657
20
-2.88681
11
3.57629
21
-2.88751
0
LINE
8
BLACK
6
CONTINUOUS
10
3.57629
20
-2.88751
11
3.57559
21
-2.8878
0
LINE
8
BLACK
6
CONTINUOUS
10
3.57559
20
-2.8878
11
3.43386
21
-2.8878
0
LINE
8
BLACK
6
CONTINUOUS
10
3.43386
20
-2.8878
11
3.43316
21
-2.88751
0
LINE
8
BLACK
6
CONTINUOUS
10
3.43316
20
-2.88751
11
3.43287
21
-2.88681
0
LINE
8
BLACK
6
CONTINUOUS
10
3.43287
20
-2.88681
11
3.43287
21
-2.76083
0
LINE
8
BLACK
6
CONTINUOUS
10
3.43287
20
-2.76083
11
3.43316
21
-2.76013
0
LINE
8
BLACK
6
CONTINUOUS
10
3.43316
20
-2.76013
11
3.43386
21
-2.75984
0
LINE
8
BLACK
6
CONTINUOUS
10
3.43386
20
-2.75984
11
3.57559
21
-2.75984
0
LINE
8
BLACK
6
CONTINUOUS
10
3.43484
20
-2.76181
11
3.43484
21
-2.88583
0
LINE
8
BLACK
6
CONTINUOUS
10
3.43484
20
-2.88583
11
3.57461
21
-2.88583
0
LINE
8
BLACK
6
CONTINUOUS
10
3.57461
20
-2.88583
11
3.57461
21
-2.76181
0
LINE
8
BLACK
6
CONTINUOUS
10
3.57461
20
-2.76181
11
3.43484
21
-2.76181
0
LINE
8
BLACK
6
CONTINUOUS
10
6.56772
20
-2.66634
11
6.56841
21
-2.66663
0
LINE
8
BLACK
6
CONTINUOUS
10
6.56841
20
-2.66663
11
6.5687
21
-2.66732
0
LINE
8
BLACK
6
CONTINUOUS
10
6.5687
20
-2.66732
11
6.5687
21
-2.79331
0
LINE
8
BLACK
6
CONTINUOUS
10
6.5687
20
-2.79331
11
6.56841
21
-2.794
0
LINE
8
BLACK
6
CONTINUOUS
10
6.56841
20
-2.794
11
6.56772
21
-2.79429
0
LINE
8
BLACK
6
CONTINUOUS
10
6.56772
20
-2.79429
11
6.42598
21
-2.79429
0
LINE
8
BLACK
6
CONTINUOUS
10
6.42598
20
-2.79429
11
6.42529
21
-2.794
0
LINE
8
BLACK
6
CONTINUOUS
10
6.42529
20
-2.794
11
6.425
21
-2.79331
0
LINE
8
BLACK
6
CONTINUOUS
10
6.425
20
-2.79331
11
6.425
21
-2.66732
0
LINE
8
BLACK
6
CONTINUOUS
10
6.425
20
-2.66732
11
6.42529
21
-2.66663
0
LINE
8
BLACK
6
CONTINUOUS
10
6.42529
20
-2.66663
11
6.42598
21
-2.66634
0
LINE
8
BLACK
6
CONTINUOUS
10
6.42598
20
-2.66634
11
6.56772
21
-2.66634
0
LINE
8
BLACK
6
CONTINUOUS
10
6.42697
20
-2.66831
11
6.42697
21
-2.79232
0
LINE
8
BLACK
6
CONTINUOUS
10
6.42697
20
-2.79232
11
6.56673
21
-2.79232
0
LINE
8
BLACK
6
CONTINUOUS
10
6.56673
20
-2.79232
11
6.56673
21
-2.66831
0
LINE
8
BLACK
6
CONTINUOUS
10
6.56673
20
-2.66831
11
6.42697
21
-2.66831
0
LINE
8
BLACK
6
CONTINUOUS
10
4.32362
20
-2.57283
11
4.32432
21
-2.57312
0
LINE
8
BLACK
6
CONTINUOUS
10
4.32432
20
-2.57312
11
4.32461
21
-2.57382
0
LINE
8
BLACK
6
CONTINUOUS
10
4.32461
20
-2.57382
11
4.32461
21
-2.6998
0
LINE
8
BLACK
6
CONTINUOUS
10
4.32461
20
-2.6998
11
4.32432
21
-2.7005
0
LINE
8
BLACK
6
CONTINUOUS
10
4.32432
20
-2.7005
11
4.32362
21
-2.70079
0
LINE
8
BLACK
6
CONTINUOUS
10
4.32362
20
-2.70079
11
4.18189
21
-2.70079
0
LINE
8
BLACK
6
CONTINUOUS
10
4.18189
20
-2.70079
11
4.18119
21
-2.7005
0
LINE
8
BLACK
6
CONTINUOUS
10
4.18119
20
-2.7005
11
4.18091
21
-2.6998
0
LINE
8
BLACK
6
CONTINUOUS
10
4.18091
20
-2.6998
11
4.18091
21
-2.57382
0
LINE
8
BLACK
6
CONTINUOUS
10
4.18091
20
-2.57382
11
4.18119
21
-2.57312
0
LINE
8
BLACK
6
CONTINUOUS
10
4.18119
20
-2.57312
11
4.18189
21
-2.57283
0
LINE
8
BLACK
6
CONTINUOUS
10
4.18189
20
-2.57283
11
4.32362
21
-2.57283
0
LINE
8
BLACK
6
CONTINUOUS
10
4.18287
20
-2.5748
11
4.18287
21
-2.69882
0
LINE
8
BLACK
6
CONTINUOUS
10
4.18287
20
-2.69882
11
4.32264
21
-2.69882
0
LINE
8
BLACK
6
CONTINUOUS
10
4.32264
20
-2.69882
11
4.32264
21
-2.5748
0
LINE
8
BLACK
6
CONTINUOUS
10
4.32264
20
-2.5748
11
4.18287
21
-2.5748
0
LINE
8
BLACK
6
CONTINUOUS
10
5.81969
20
-2.57283
11
5.82038
21
-2.57312
0
LINE
8
BLACK
6
CONTINUOUS
10
5.82038
20
-2.57312
11
5.82067
21
-2.57382
0
LINE
8
BLACK
6
CONTINUOUS
10
5.82067
20
-2.57382
11
5.82067
21
-2.6998
0
LINE
8
BLACK
6
CONTINUOUS
10
5.82067
20
-2.6998
11
5.82038
21
-2.7005
0
LINE
8
BLACK
6
CONTINUOUS
10
5.82038
20
-2.7005
11
5.81969
21
-2.70079
0
LINE
8
BLACK
6
CONTINUOUS
10
5.81969
20
-2.70079
11
5.67795
21
-2.70079
0
LINE
8
BLACK
6
CONTINUOUS
10
5.67795
20
-2.70079
11
5.67726
21
-2.7005
0
LINE
8
BLACK
6
CONTINUOUS
10
5.67726
20
-2.7005
11
5.67697
21
-2.6998
0
LINE
8
BLACK
6
CONTINUOUS
10
5.67697
20
-2.6998
11
5.67697
21
-2.57382
0
LINE
8
BLACK
6
CONTINUOUS
10
5.67697
20
-2.57382
11
5.67726
21
-2.57312
0
LINE
8
BLACK
6
CONTINUOUS
10
5.67726
20
-2.57312
11
5.67795
21
-2.57283
0
LINE
8
BLACK
6
CONTINUOUS
10
5.67795
20
-2.57283
11
5.81969
21
-2.57283
0
LINE
8
BLACK
6
CONTINUOUS
10
5.67894
20
-2.5748
11
5.67894
21
-2.69882
0
LINE
8
BLACK
6
CONTINUOUS
10
5.67894
20
-2.69882
11
5.8187
21
-2.69882
0
LINE
8
BLACK
6
CONTINUOUS
10
5.8187
20
-2.69882
11
5.8187
21
-2.5748
0
LINE
8
BLACK
6
CONTINUOUS
10
5.8187
20
-2.5748
11
5.67894
21
-2.5748
0
LINE
8
BLACK
6
CONTINUOUS
10
5.07165
20
-2.47933
11
5.07235
21
-2.47962
0
LINE
8
BLACK
6
CONTINUOUS
10
5.07235
20
-2.47962
11
5.07264
21
-2.48031
0
LINE
8
BLACK
6
CONTINUOUS
10
5.07264
20
-2.48031
11
5.07264
21
-2.6063
0
LINE
8
BLACK
6
CONTINUOUS
10
5.07264
20
-2.6063
11
5.07235
21
-2.607
0
LINE
8
BLACK
6
CONTINUOUS
10
5.07235
20
-2.607
11
5.07165
21
-2.60728
0
LINE
8
BLACK
6
CONTINUOUS
10
5.07165
20
-2.60728
11
4.92992
21
-2.60728
0
LINE
8
BLACK
6
CONTINUOUS
10
4.92992
20
-2.60728
11
4.92923
21
-2.607
0
LINE
8
BLACK
6
CONTINUOUS
10
4.92923
20
-2.607
11
4.92894
21
-2.6063
0
LINE
8
BLACK
6
CONTINUOUS
10
4.92894
20
-2.6063
11
4.92894
21
-2.48031
0
LINE
8
BLACK
6
CONTINUOUS
10
4.92894
20
-2.48031
11
4.92923
21
-2.47962
0
LINE
8
BLACK
6
CONTINUOUS
10
4.92923
20
-2.47962
11
4.92992
21
-2.47933
0
LINE
8
BLACK
6
CONTINUOUS
10
4.92992
20
-2.47933
11
5.07165
21
-2.47933
0
LINE
8
BLACK
6
CONTINUOUS
10
4.93091
20
-2.4813
11
4.93091
21
-2.60531
0
LINE
8
BLACK
6
CONTINUOUS
10
4.93091
20
-2.60531
11
5.07067
21
-2.60531
0
LINE
8
BLACK
6
CONTINUOUS
10
5.07067
20
-2.60531
11
5.07067
21
-2.4813
0
LINE
8
BLACK
6
CONTINUOUS
10
5.07067
20
-2.4813
11
4.93091
21
-2.4813
0
LINE
8
BLACK
6
CONTINUOUS
10
5.33465
20
-2.39862
11
5.33968
21
-2.39919
0
LINE
8
BLACK
6
CONTINUOUS
10
5.33968
20
-2.39919
11
5.34447
21
-2.40086
0
LINE
8
BLACK
6
CONTINUOUS
10
5.34447
20
-2.40086
11
5.34876
21
-2.40356
0
LINE
8
BLACK
6
CONTINUOUS
10
5.34876
20
-2.40356
11
5.35234
21
-2.40715
0
LINE
8
BLACK
6
CONTINUOUS
10
5.35234
20
-2.40715
11
5.35504
21
-2.41144
0
LINE
8
BLACK
6
CONTINUOUS
10
5.35504
20
-2.41144
11
5.35672
21
-2.41622
0
LINE
8
BLACK
6
CONTINUOUS
10
5.35672
20
-2.41622
11
5.35728
21
-2.42126
0
LINE
8
BLACK
6
CONTINUOUS
10
5.35728
20
-2.42126
11
5.35728
21
-2.42126
0
LINE
8
BLACK
6
CONTINUOUS
10
5.35728
20
-2.42126
11
5.35728
21
-2.47047
0
LINE
8
BLACK
6
CONTINUOUS
10
5.35728
20
-2.47047
11
5.35728
21
-2.47268
0
LINE
8
BLACK
6
CONTINUOUS
10
5.35728
20
-2.47268
11
5.35842
21
-2.47693
0
LINE
8
BLACK
6
CONTINUOUS
10
5.35842
20
-2.47693
11
5.36063
21
-2.48075
0
LINE
8
BLACK
6
CONTINUOUS
10
5.36063
20
-2.48075
11
5.36374
21
-2.48386
0
LINE
8
BLACK
6
CONTINUOUS
10
5.36374
20
-2.48386
11
5.36756
21
-2.48606
0
LINE
8
BLACK
6
CONTINUOUS
10
5.36756
20
-2.48606
11
5.37181
21
-2.4872
0
LINE
8
BLACK
6
CONTINUOUS
10
5.37181
20
-2.4872
11
5.37402
21
-2.4872
0
LINE
8
BLACK
6
CONTINUOUS
10
5.37402
20
-2.4872
11
6.08268
21
-2.4872
0
LINE
8
BLACK
6
CONTINUOUS
10
6.08268
20
-2.4872
11
6.08771
21
-2.48777
0
LINE
8
BLACK
6
CONTINUOUS
10
6.08771
20
-2.48777
11
6.0925
21
-2.48945
0
LINE
8
BLACK
6
CONTINUOUS
10
6.0925
20
-2.48945
11
6.09679
21
-2.49214
0
LINE
8
BLACK
6
CONTINUOUS
10
6.09679
20
-2.49214
11
6.10038
21
-2.49573
0
LINE
8
BLACK
6
CONTINUOUS
10
6.10038
20
-2.49573
11
6.10307
21
-2.50002
0
LINE
8
BLACK
6
CONTINUOUS
10
6.10307
20
-2.50002
11
6.10475
21
-2.50481
0
LINE
8
BLACK
6
CONTINUOUS
10
6.10475
20
-2.50481
11
6.10531
21
-2.50984
0
LINE
8
BLACK
6
CONTINUOUS
10
6.10531
20
-2.50984
11
6.10531
21
-2.5689
0
LINE
8
BLACK
6
CONTINUOUS
10
6.10531
20
-2.5689
11
6.10531
21
-2.5689
0
LINE
8
BLACK
6
CONTINUOUS
10
6.10531
20
-2.5689
11
6.10531
21
-2.5711
0
LINE
8
BLACK
6
CONTINUOUS
10
6.10531
20
-2.5711
11
6.10646
21
-2.57536
0
LINE
8
BLACK
6
CONTINUOUS
10
6.10646
20
-2.57536
11
6.10866
21
-2.57917
0
LINE
8
BLACK
6
CONTINUOUS
10
6.10866
20
-2.57917
11
6.11177
21
-2.58229
0
LINE
8
BLACK
6
CONTINUOUS
10
6.11177
20
-2.58229
11
6.11559
21
-2.58449
0
LINE
8
BLACK
6
CONTINUOUS
10
6.11559
20
-2.58449
11
6.11984
21
-2.58563
0
LINE
8
BLACK
6
CONTINUOUS
10
6.11984
20
-2.58563
11
6.12205
21
-2.58563
0
LINE
8
BLACK
6
CONTINUOUS
10
6.12205
20
-2.58563
11
6.83071
21
-2.58563
0
LINE
8
BLACK
6
CONTINUOUS
10
6.83071
20
-2.58563
11
6.83575
21
-2.5862
0
LINE
8
BLACK
6
CONTINUOUS
10
6.83575
20
-2.5862
11
6.84053
21
-2.58787
0
LINE
8
BLACK
6
CONTINUOUS
10
6.84053
20
-2.58787
11
6.84482
21
-2.59057
0
LINE
8
BLACK
6
CONTINUOUS
10
6.84482
20
-2.59057
11
6.84841
21
-2.59415
0
LINE
8
BLACK
6
CONTINUOUS
10
6.84841
20
-2.59415
11
6.8511
21
-2.59845
0
LINE
8
BLACK
6
CONTINUOUS
10
6.8511
20
-2.59845
11
6.85278
21
-2.60323
0
LINE
8
BLACK
6
CONTINUOUS
10
6.85278
20
-2.60323
11
6.85335
21
-2.60827
0
LINE
8
BLACK
6
CONTINUOUS
10
6.85335
20
-2.60827
11
6.85335
21
-2.60827
0
LINE
8
BLACK
6
CONTINUOUS
10
6.85335
20
-2.60827
11
6.85335
21
-2.65748
0
LINE
8
BLACK
6
CONTINUOUS
10
6.85335
20
-2.65748
11
6.85335
21
-2.65968
0
LINE
8
BLACK
6
CONTINUOUS
10
6.85335
20
-2.65968
11
6.85449
21
-2.66394
0
LINE
8
BLACK
6
CONTINUOUS
10
6.85449
20
-2.66394
11
6.85669
21
-2.66775
0
LINE
8
BLACK
6
CONTINUOUS
10
6.85669
20
-2.66775
11
6.8598
21
-2.67087
0
LINE
8
BLACK
6
CONTINUOUS
10
6.8598
20
-2.67087
11
6.86362
21
-2.67307
0
LINE
8
BLACK
6
CONTINUOUS
10
6.86362
20
-2.67307
11
6.86788
21
-2.67421
0
LINE
8
BLACK
6
CONTINUOUS
10
6.86788
20
-2.67421
11
6.87008
21
-2.67421
0
LINE
8
BLACK
6
CONTINUOUS
10
6.87008
20
-2.67421
11
7.64764
21
-2.67421
0
LINE
8
BLACK
6
CONTINUOUS
10
7.64764
20
-2.67421
11
7.65268
21
-2.67478
0
LINE
8
BLACK
6
CONTINUOUS
10
7.65268
20
-2.67478
11
7.65746
21
-2.67645
0
LINE
8
BLACK
6
CONTINUOUS
10
7.65746
20
-2.67645
11
7.66175
21
-2.67915
0
LINE
8
BLACK
6
CONTINUOUS
10
7.66175
20
-2.67915
11
7.66534
21
-2.68274
0
LINE
8
BLACK
6
CONTINUOUS
10
7.66534
20
-2.68274
11
7.66803
21
-2.68703
0
LINE
8
BLACK
6
CONTINUOUS
10
7.66803
20
-2.68703
11
7.66971
21
-2.69181
0
LINE
8
BLACK
6
CONTINUOUS
10
7.66971
20
-2.69181
11
7.67028
21
-2.69685
0
LINE
8
BLACK
6
CONTINUOUS
10
7.67028
20
-2.69685
11
7.67028
21
-2.69685
0
LINE
8
BLACK
6
CONTINUOUS
10
7.67028
20
-2.69685
11
7.67028
21
-5.03839
0
LINE
8
BLACK
6
CONTINUOUS
10
7.67028
20
-5.03839
11
7.67027
21
-5.0384
0
LINE
8
BLACK
6
CONTINUOUS
10
7.67027
20
-5.0384
11
7.66997
21
-5.04584
0
LINE
8
BLACK
6
CONTINUOUS
10
7.66997
20
-5.04584
11
7.66887
21
-5.05326
0
LINE
8
BLACK
6
CONTINUOUS
10
7.66887
20
-5.05326
11
7.66698
21
-5.06052
0
LINE
8
BLACK
6
CONTINUOUS
10
7.66698
20
-5.06052
11
7.66433
21
-5.06753
0
LINE
8
BLACK
6
CONTINUOUS
10
7.66433
20
-5.06753
11
7.66109
21
-5.07391
0
LINE
8
BLACK
6
CONTINUOUS
10
7.66109
20
-5.07391
11
7.66102
21
-5.07431
0
LINE
8
BLACK
6
CONTINUOUS
10
7.66102
20
-5.07431
11
7.14025
21
-5.97712
0
LINE
8
BLACK
6
CONTINUOUS
10
7.14025
20
-5.97712
11
7.14016
21
-5.97722
0
LINE
8
BLACK
6
CONTINUOUS
10
7.14016
20
-5.97722
11
7.14014
21
-5.97729
0
LINE
8
BLACK
6
CONTINUOUS
10
7.14014
20
-5.97729
11
7.13509
21
-5.98379
0
LINE
8
BLACK
6
CONTINUOUS
10
7.13509
20
-5.98379
11
7.12916
21
-5.9895
0
LINE
8
BLACK
6
CONTINUOUS
10
7.12916
20
-5.9895
11
7.12248
21
-5.99431
0
LINE
8
BLACK
6
CONTINUOUS
10
7.12248
20
-5.99431
11
7.11518
21
-5.99811
0
LINE
8
BLACK
6
CONTINUOUS
10
7.11518
20
-5.99811
11
7.10742
21
-6.00084
0
LINE
8
BLACK
6
CONTINUOUS
10
7.10742
20
-6.00084
11
7.09934
21
-6.00243
0
LINE
8
BLACK
6
CONTINUOUS
10
7.09934
20
-6.00243
11
7.09112
21
-6.00285
0
LINE
8
BLACK
6
CONTINUOUS
10
7.09112
20
-6.00285
11
7.08292
21
-6.00209
0
LINE
8
BLACK
6
CONTINUOUS
10
7.08292
20
-6.00209
11
7.07492
21
-6.00018
0
LINE
8
BLACK
6
CONTINUOUS
10
7.07492
20
-6.00018
11
7.06727
21
-5.99714
0
LINE
8
BLACK
6
CONTINUOUS
10
7.06727
20
-5.99714
11
7.06033
21
-5.99315
0
LINE
8
BLACK
6
CONTINUOUS
10
7.06033
20
-5.99315
11
7.0603
21
-5.99315
0
LINE
8
BLACK
6
CONTINUOUS
10
7.0603
20
-5.99315
11
6.49783
21
-5.66808
0
LINE
8
BLACK
6
CONTINUOUS
10
6.49783
20
-5.66808
11
6.49406
21
-5.66694
0
LINE
8
BLACK
6
CONTINUOUS
10
6.49406
20
-5.66694
11
6.4857
21
-5.665
0
LINE
8
BLACK
6
CONTINUOUS
10
6.4857
20
-5.665
11
6.47723
21
-5.66361
0
LINE
8
BLACK
6
CONTINUOUS
10
6.47723
20
-5.66361
11
6.47296
21
-5.66319
0
LINE
8
BLACK
6
CONTINUOUS
10
6.47296
20
-5.66319
11
6.47296
21
-5.66319
0
LINE
8
BLACK
6
CONTINUOUS
10
6.47296
20
-5.66319
11
6.47291
21
-5.66317
0
LINE
8
BLACK
6
CONTINUOUS
10
6.47291
20
-5.66317
11
6.47287
21
-5.66318
0
LINE
8
BLACK
6
CONTINUOUS
10
6.47287
20
-5.66318
11
5.02915
21
-5.47537
0
LINE
8
BLACK
6
CONTINUOUS
10
5.02915
20
-5.47537
11
5.02909
21
-5.47535
0
LINE
8
BLACK
6
CONTINUOUS
10
5.02909
20
-5.47535
11
5.02511
21
-5.47496
0
LINE
8
BLACK
6
CONTINUOUS
10
5.02511
20
-5.47496
11
5.02086
21
-5.47367
0
LINE
8
BLACK
6
CONTINUOUS
10
5.02086
20
-5.47367
11
5.01695
21
-5.47158
0
LINE
8
BLACK
6
CONTINUOUS
10
5.01695
20
-5.47158
11
5.01352
21
-5.46876
0
LINE
8
BLACK
6
CONTINUOUS
10
5.01352
20
-5.46876
11
5.01341
21
-5.46854
0
LINE
8
BLACK
6
CONTINUOUS
10
5.01341
20
-5.46854
11
5.01322
21
-5.46842
0
LINE
8
BLACK
6
CONTINUOUS
10
5.01322
20
-5.46842
11
4.59828
21
-4.89942
0
LINE
8
BLACK
6
CONTINUOUS
10
4.59828
20
-4.89942
11
4.59728
21
-4.89842
0
LINE
8
BLACK
6
CONTINUOUS
10
4.59728
20
-4.89842
11
4.59454
21
-4.89659
0
LINE
8
BLACK
6
CONTINUOUS
10
4.59454
20
-4.89659
11
4.59149
21
-4.89533
0
LINE
8
BLACK
6
CONTINUOUS
10
4.59149
20
-4.89533
11
4.58826
21
-4.89469
0
LINE
8
BLACK
6
CONTINUOUS
10
4.58826
20
-4.89469
11
4.58661
21
-4.89469
0
LINE
8
BLACK
6
CONTINUOUS
10
4.58661
20
-4.89469
11
3.16929
21
-4.89469
0
LINE
8
BLACK
6
CONTINUOUS
10
3.16929
20
-4.89469
11
3.16425
21
-4.89412
0
LINE
8
BLACK
6
CONTINUOUS
10
3.16425
20
-4.89412
11
3.15947
21
-4.89244
0
LINE
8
BLACK
6
CONTINUOUS
10
3.15947
20
-4.89244
11
3.15518
21
-4.88975
0
LINE
8
BLACK
6
CONTINUOUS
10
3.15518
20
-4.88975
11
3.15159
21
-4.88616
0
LINE
8
BLACK
6
CONTINUOUS
10
3.15159
20
-4.88616
11
3.1489
21
-4.88187
0
LINE
8
BLACK
6
CONTINUOUS
10
3.1489
20
-4.88187
11
3.14722
21
-4.87708
0
LINE
8
BLACK
6
CONTINUOUS
10
3.14722
20
-4.87708
11
3.14665
21
-4.87205
0
LINE
8
BLACK
6
CONTINUOUS
10
3.14665
20
-4.87205
11
3.14665
21
-4.58661
0
LINE
8
BLACK
6
CONTINUOUS
10
3.14665
20
-4.58661
11
3.14665
21
-4.58421
0
LINE
8
BLACK
6
CONTINUOUS
10
3.14665
20
-4.58421
11
3.1453
21
-4.57959
0
LINE
8
BLACK
6
CONTINUOUS
10
3.1453
20
-4.57959
11
3.1427
21
-4.57554
0
LINE
8
BLACK
6
CONTINUOUS
10
3.1427
20
-4.57554
11
3.13906
21
-4.57239
0
LINE
8
BLACK
6
CONTINUOUS
10
3.13906
20
-4.57239
11
3.13468
21
-4.57039
0
LINE
8
BLACK
6
CONTINUOUS
10
3.13468
20
-4.57039
11
3.12992
21
-4.56971
0
LINE
8
BLACK
6
CONTINUOUS
10
3.12992
20
-4.56971
11
3.12516
21
-4.57039
0
LINE
8
BLACK
6
CONTINUOUS
10
3.12516
20
-4.57039
11
3.12078
21
-4.57239
0
LINE
8
BLACK
6
CONTINUOUS
10
3.12078
20
-4.57239
11
3.11715
21
-4.57554
0
LINE
8
BLACK
6
CONTINUOUS
10
3.11715
20
-4.57554
11
3.11454
21
-4.57959
0
LINE
8
BLACK
6
CONTINUOUS
10
3.11454
20
-4.57959
11
3.11319
21
-4.58421
0
LINE
8
BLACK
6
CONTINUOUS
10
3.11319
20
-4.58421
11
3.11319
21
-4.58661
0
LINE
8
BLACK
6
CONTINUOUS
10
3.11319
20
-4.58661
11
3.11319
21
-4.87205
0
LINE
8
BLACK
6
CONTINUOUS
10
3.11319
20
-4.87205
11
3.11262
21
-4.87708
0
LINE
8
BLACK
6
CONTINUOUS
10
3.11262
20
-4.87708
11
3.11095
21
-4.88187
0
LINE
8
BLACK
6
CONTINUOUS
10
3.11095
20
-4.88187
11
3.10825
21
-4.88616
0
LINE
8
BLACK
6
CONTINUOUS
10
3.10825
20
-4.88616
11
3.10467
21
-4.88975
0
LINE
8
BLACK
6
CONTINUOUS
10
3.10467
20
-4.88975
11
3.10037
21
-4.89244
0
LINE
8
BLACK
6
CONTINUOUS
10
3.10037
20
-4.89244
11
3.09559
21
-4.89412
0
LINE
8
BLACK
6
CONTINUOUS
10
3.09559
20
-4.89412
11
3.09055
21
-4.89469
0
LINE
8
BLACK
6
CONTINUOUS
10
3.09055
20
-4.89469
11
2.42126
21
-4.89469
0
LINE
8
BLACK
6
CONTINUOUS
10
2.42126
20
-4.89469
11
2.41622
21
-4.89412
0
LINE
8
BLACK
6
CONTINUOUS
10
2.41622
20
-4.89412
11
2.41144
21
-4.89244
0
LINE
8
BLACK
6
CONTINUOUS
10
2.41144
20
-4.89244
11
2.40715
21
-4.88975
0
LINE
8
BLACK
6
CONTINUOUS
10
2.40715
20
-4.88975
11
2.40356
21
-4.88616
0
LINE
8
BLACK
6
CONTINUOUS
10
2.40356
20
-4.88616
11
2.40086
21
-4.88187
0
LINE
8
BLACK
6
CONTINUOUS
10
2.40086
20
-4.88187
11
2.39919
21
-4.87708
0
LINE
8
BLACK
6
CONTINUOUS
10
2.39919
20
-4.87708
11
2.39862
21
-4.87205
0
LINE
8
BLACK
6
CONTINUOUS
10
2.39862
20
-4.87205
11
2.39862
21
-2.69685
0
LINE
8
BLACK
6
CONTINUOUS
10
2.39862
20
-2.69685
11
2.39919
21
-2.69181
0
LINE
8
BLACK
6
CONTINUOUS
10
2.39919
20
-2.69181
11
2.40086
21
-2.68703
0
LINE
8
BLACK
6
CONTINUOUS
10
2.40086
20
-2.68703
11
2.40356
21
-2.68274
0
LINE
8
BLACK
6
CONTINUOUS
10
2.40356
20
-2.68274
11
2.40715
21
-2.67915
0
LINE
8
BLACK
6
CONTINUOUS
10
2.40715
20
-2.67915
11
2.41144
21
-2.67645
0
LINE
8
BLACK
6
CONTINUOUS
10
2.41144
20
-2.67645
11
2.41622
21
-2.67478
0
LINE
8
BLACK
6
CONTINUOUS
10
2.41622
20
-2.67478
11
2.42126
21
-2.67421
0
LINE
8
BLACK
6
CONTINUOUS
10
2.42126
20
-2.67421
11
3.09055
21
-2.67421
0
LINE
8
BLACK
6
CONTINUOUS
10
3.09055
20
-2.67421
11
3.09559
21
-2.67478
0
LINE
8
BLACK
6
CONTINUOUS
10
3.09559
20
-2.67478
11
3.10037
21
-2.67645
0
LINE
8
BLACK
6
CONTINUOUS
10
3.10037
20
-2.67645
11
3.10467
21
-2.67915
0
LINE
8
BLACK
6
CONTINUOUS
10
3.10467
20
-2.67915
11
3.10825
21
-2.68274
0
LINE
8
BLACK
6
CONTINUOUS
10
3.10825
20
-2.68274
11
3.11095
21
-2.68703
0
LINE
8
BLACK
6
CONTINUOUS
10
3.11095
20
-2.68703
11
3.11262
21
-2.69181
0
LINE
8
BLACK
6
CONTINUOUS
10
3.11262
20
-2.69181
11
3.11319
21
-2.69685
0
LINE
8
BLACK
6
CONTINUOUS
10
3.11319
20
-2.69685
11
3.11319
21
-2.97244
0
LINE
8
BLACK
6
CONTINUOUS
10
3.11319
20
-2.97244
11
3.11319
21
-2.97244
0
LINE
8
BLACK
6
CONTINUOUS
10
3.11319
20
-2.97244
11
3.11319
21
-2.97485
0
LINE
8
BLACK
6
CONTINUOUS
10
3.11319
20
-2.97485
11
3.11454
21
-2.97946
0
LINE
8
BLACK
6
CONTINUOUS
10
3.11454
20
-2.97946
11
3.11715
21
-2.98351
0
LINE
8
BLACK
6
CONTINUOUS
10
3.11715
20
-2.98351
11
3.12078
21
-2.98666
0
LINE
8
BLACK
6
CONTINUOUS
10
3.12078
20
-2.98666
11
3.12516
21
-2.98866
0
LINE
8
BLACK
6
CONTINUOUS
10
3.12516
20
-2.98866
11
3.12992
21
-2.98935
0
LINE
8
BLACK
6
CONTINUOUS
10
3.12992
20
-2.98935
11
3.13468
21
-2.98866
0
LINE
8
BLACK
6
CONTINUOUS
10
3.13468
20
-2.98866
11
3.13906
21
-2.98666
0
LINE
8
BLACK
6
CONTINUOUS
10
3.13906
20
-2.98666
11
3.1427
21
-2.98351
0
LINE
8
BLACK
6
CONTINUOUS
10
3.1427
20
-2.98351
11
3.1453
21
-2.97946
0
LINE
8
BLACK
6
CONTINUOUS
10
3.1453
20
-2.97946
11
3.14665
21
-2.97485
0
LINE
8
BLACK
6
CONTINUOUS
10
3.14665
20
-2.97485
11
3.14665
21
-2.97244
0
LINE
8
BLACK
6
CONTINUOUS
10
3.14665
20
-2.97244
11
3.14665
21
-2.69685
0
LINE
8
BLACK
6
CONTINUOUS
10
3.14665
20
-2.69685
11
3.14722
21
-2.69181
0
LINE
8
BLACK
6
CONTINUOUS
10
3.14722
20
-2.69181
11
3.1489
21
-2.68703
0
LINE
8
BLACK
6
CONTINUOUS
10
3.1489
20
-2.68703
11
3.15159
21
-2.68274
0
LINE
8
BLACK
6
CONTINUOUS
10
3.15159
20
-2.68274
11
3.15518
21
-2.67915
0
LINE
8
BLACK
6
CONTINUOUS
10
3.15518
20
-2.67915
11
3.15947
21
-2.67645
0
LINE
8
BLACK
6
CONTINUOUS
10
3.15947
20
-2.67645
11
3.16425
21
-2.67478
0
LINE
8
BLACK
6
CONTINUOUS
10
3.16425
20
-2.67478
11
3.16929
21
-2.67421
0
LINE
8
BLACK
6
CONTINUOUS
10
3.16929
20
-2.67421
11
3.87795
21
-2.67421
0
LINE
8
BLACK
6
CONTINUOUS
10
3.87795
20
-2.67421
11
3.88016
21
-2.67421
0
LINE
8
BLACK
6
CONTINUOUS
10
3.88016
20
-2.67421
11
3.88441
21
-2.67307
0
LINE
8
BLACK
6
CONTINUOUS
10
3.88441
20
-2.67307
11
3.88823
21
-2.67087
0
LINE
8
BLACK
6
CONTINUOUS
10
3.88823
20
-2.67087
11
3.89134
21
-2.66775
0
LINE
8
BLACK
6
CONTINUOUS
10
3.89134
20
-2.66775
11
3.89354
21
-2.66394
0
LINE
8
BLACK
6
CONTINUOUS
10
3.89354
20
-2.66394
11
3.89469
21
-2.65968
0
LINE
8
BLACK
6
CONTINUOUS
10
3.89469
20
-2.65968
11
3.89469
21
-2.65748
0
LINE
8
BLACK
6
CONTINUOUS
10
3.89469
20
-2.65748
11
3.89469
21
-2.50984
0
LINE
8
BLACK
6
CONTINUOUS
10
3.89469
20
-2.50984
11
3.89469
21
-2.50984
0
LINE
8
BLACK
6
CONTINUOUS
10
3.89469
20
-2.50984
11
3.89525
21
-2.50481
0
LINE
8
BLACK
6
CONTINUOUS
10
3.89525
20
-2.50481
11
3.89693
21
-2.50002
0
LINE
8
BLACK
6
CONTINUOUS
10
3.89693
20
-2.50002
11
3.89962
21
-2.49573
0
LINE
8
BLACK
6
CONTINUOUS
10
3.89962
20
-2.49573
11
3.90321
21
-2.49214
0
LINE
8
BLACK
6
CONTINUOUS
10
3.90321
20
-2.49214
11
3.9075
21
-2.48945
0
LINE
8
BLACK
6
CONTINUOUS
10
3.9075
20
-2.48945
11
3.91229
21
-2.48777
0
LINE
8
BLACK
6
CONTINUOUS
10
3.91229
20
-2.48777
11
3.91732
21
-2.4872
0
LINE
8
BLACK
6
CONTINUOUS
10
3.91732
20
-2.4872
11
4.62598
21
-2.4872
0
LINE
8
BLACK
6
CONTINUOUS
10
4.62598
20
-2.4872
11
4.62819
21
-2.4872
0
LINE
8
BLACK
6
CONTINUOUS
10
4.62819
20
-2.4872
11
4.63244
21
-2.48606
0
LINE
8
BLACK
6
CONTINUOUS
10
4.63244
20
-2.48606
11
4.63626
21
-2.48386
0
LINE
8
BLACK
6
CONTINUOUS
10
4.63626
20
-2.48386
11
4.63937
21
-2.48075
0
LINE
8
BLACK
6
CONTINUOUS
10
4.63937
20
-2.48075
11
4.64158
21
-2.47693
0
LINE
8
BLACK
6
CONTINUOUS
10
4.64158
20
-2.47693
11
4.64272
21
-2.47268
0
LINE
8
BLACK
6
CONTINUOUS
10
4.64272
20
-2.47268
11
4.64272
21
-2.47047
0
LINE
8
BLACK
6
CONTINUOUS
10
4.64272
20
-2.47047
11
4.64272
21
-2.42126
0
LINE
8
BLACK
6
CONTINUOUS
10
4.64272
20
-2.42126
11
4.64328
21
-2.41622
0
LINE
8
BLACK
6
CONTINUOUS
10
4.64328
20
-2.41622
11
4.64496
21
-2.41144
0
LINE
8
BLACK
6
CONTINUOUS
10
4.64496
20
-2.41144
11
4.64766
21
-2.40715
0
LINE
8
BLACK
6
CONTINUOUS
10
4.64766
20
-2.40715
11
4.65124
21
-2.40356
0
LINE
8
BLACK
6
CONTINUOUS
10
4.65124
20
-2.40356
11
4.65553
21
-2.40086
0
LINE
8
BLACK
6
CONTINUOUS
10
4.65553
20
-2.40086
11
4.66032
21
-2.39919
0
LINE
8
BLACK
6
CONTINUOUS
10
4.66032
20
-2.39919
11
4.66535
21
-2.39862
0
LINE
8
BLACK
6
CONTINUOUS
10
4.66535
20
-2.39862
11
5.33465
21
-2.39862
0
LINE
8
BLACK
6
CONTINUOUS
10
4.66535
20
-2.40453
11
4.66315
21
-2.40453
0
LINE
8
BLACK
6
CONTINUOUS
10
4.66315
20
-2.40453
11
4.6589
21
-2.40567
0
LINE
8
BLACK
6
CONTINUOUS
10
4.6589
20
-2.40567
11
4.65508
21
-2.40787
0
LINE
8
BLACK
6
CONTINUOUS
10
4.65508
20
-2.40787
11
4.65197
21
-2.41099
0
LINE
8
BLACK
6
CONTINUOUS
10
4.65197
20
-2.41099
11
4.64976
21
-2.4148
0
LINE
8
BLACK
6
CONTINUOUS
10
4.64976
20
-2.4148
11
4.64862
21
-2.41906
0
LINE
8
BLACK
6
CONTINUOUS
10
4.64862
20
-2.41906
11
4.64862
21
-2.42126
0
LINE
8
BLACK
6
CONTINUOUS
10
4.64862
20
-2.42126
11
4.64862
21
-2.47047
0
LINE
8
BLACK
6
CONTINUOUS
10
4.64862
20
-2.47047
11
4.64805
21
-2.47551
0
LINE
8
BLACK
6
CONTINUOUS
10
4.64805
20
-2.47551
11
4.64638
21
-2.48029
0
LINE
8
BLACK
6
CONTINUOUS
10
4.64638
20
-2.48029
11
4.64368
21
-2.48459
0
LINE
8
BLACK
6
CONTINUOUS
10
4.64368
20
-2.48459
11
4.6401
21
-2.48817
0
LINE
8
BLACK
6
CONTINUOUS
10
4.6401
20
-2.48817
11
4.63581
21
-2.49087
0
LINE
8
BLACK
6
CONTINUOUS
10
4.63581
20
-2.49087
11
4.63102
21
-2.49254
0
LINE
8
BLACK
6
CONTINUOUS
10
4.63102
20
-2.49254
11
4.62598
21
-2.49311
0
LINE
8
BLACK
6
CONTINUOUS
10
4.62598
20
-2.49311
11
3.91732
21
-2.49311
0
LINE
8
BLACK
6
CONTINUOUS
10
3.91732
20
-2.49311
11
3.91512
21
-2.49311
0
LINE
8
BLACK
6
CONTINUOUS
10
3.91512
20
-2.49311
11
3.91086
21
-2.49425
0
LINE
8
BLACK
6
CONTINUOUS
10
3.91086
20
-2.49425
11
3.90705
21
-2.49645
0
LINE
8
BLACK
6
CONTINUOUS
10
3.90705
20
-2.49645
11
3.90393
21
-2.49957
0
LINE
8
BLACK
6
CONTINUOUS
10
3.90393
20
-2.49957
11
3.90173
21
-2.50338
0
LINE
8
BLACK
6
CONTINUOUS
10
3.90173
20
-2.50338
11
3.90059
21
-2.50764
0
LINE
8
BLACK
6
CONTINUOUS
10
3.90059
20
-2.50764
11
3.90059
21
-2.50984
0
LINE
8
BLACK
6
CONTINUOUS
10
3.90059
20
-2.50984
11
3.90059
21
-2.65748
0
LINE
8
BLACK
6
CONTINUOUS
10
3.90059
20
-2.65748
11
3.90059
21
-2.65748
0
LINE
8
BLACK
6
CONTINUOUS
10
3.90059
20
-2.65748
11
3.90002
21
-2.66252
0
LINE
8
BLACK
6
CONTINUOUS
10
3.90002
20
-2.66252
11
3.89835
21
-2.6673
0
LINE
8
BLACK
6
CONTINUOUS
10
3.89835
20
-2.6673
11
3.89565
21
-2.67159
0
LINE
8
BLACK
6
CONTINUOUS
10
3.89565
20
-2.67159
11
3.89207
21
-2.67518
0
LINE
8
BLACK
6
CONTINUOUS
10
3.89207
20
-2.67518
11
3.88777
21
-2.67788
0
LINE
8
BLACK
6
CONTINUOUS
10
3.88777
20
-2.67788
11
3.88299
21
-2.67955
0
LINE
8
BLACK
6
CONTINUOUS
10
3.88299
20
-2.67955
11
3.87795
21
-2.68012
0
LINE
8
BLACK
6
CONTINUOUS
10
3.87795
20
-2.68012
11
3.16929
21
-2.68012
0
LINE
8
BLACK
6
CONTINUOUS
10
3.16929
20
-2.68012
11
3.16709
21
-2.68012
0
LINE
8
BLACK
6
CONTINUOUS
10
3.16709
20
-2.68012
11
3.16283
21
-2.68126
0
LINE
8
BLACK
6
CONTINUOUS
10
3.16283
20
-2.68126
11
3.15902
21
-2.68346
0
LINE
8
BLACK
6
CONTINUOUS
10
3.15902
20
-2.68346
11
3.1559
21
-2.68658
0
LINE
8
BLACK
6
CONTINUOUS
10
3.1559
20
-2.68658
11
3.1537
21
-2.69039
0
LINE
8
BLACK
6
CONTINUOUS
10
3.1537
20
-2.69039
11
3.15256
21
-2.69465
0
LINE
8
BLACK
6
CONTINUOUS
10
3.15256
20
-2.69465
11
3.15256
21
-2.69685
0
LINE
8
BLACK
6
CONTINUOUS
10
3.15256
20
-2.69685
11
3.15256
21
-2.97244
0
LINE
8
BLACK
6
CONTINUOUS
10
3.15256
20
-2.97244
11
3.15256
21
-2.97244
0
LINE
8
BLACK
6
CONTINUOUS
10
3.15256
20
-2.97244
11
3.1519
21
-2.97786
0
LINE
8
BLACK
6
CONTINUOUS
10
3.1519
20
-2.97786
11
3.14997
21
-2.98296
0
LINE
8
BLACK
6
CONTINUOUS
10
3.14997
20
-2.98296
11
3.14687
21
-2.98745
0
LINE
8
BLACK
6
CONTINUOUS
10
3.14687
20
-2.98745
11
3.14278
21
-2.99107
0
LINE
8
BLACK
6
CONTINUOUS
10
3.14278
20
-2.99107
11
3.13795
21
-2.99361
0
LINE
8
BLACK
6
CONTINUOUS
10
3.13795
20
-2.99361
11
3.13265
21
-2.99491
0
LINE
8
BLACK
6
CONTINUOUS
10
3.13265
20
-2.99491
11
3.12719
21
-2.99491
0
LINE
8
BLACK
6
CONTINUOUS
10
3.12719
20
-2.99491
11
3.12189
21
-2.99361
0
LINE
8
BLACK
6
CONTINUOUS
10
3.12189
20
-2.99361
11
3.11706
21
-2.99107
0
LINE
8
BLACK
6
CONTINUOUS
10
3.11706
20
-2.99107
11
3.11298
21
-2.98745
0
LINE
8
BLACK
6
CONTINUOUS
10
3.11298
20
-2.98745
11
3.10988
21
-2.98296
0
LINE
8
BLACK
6
CONTINUOUS
10
3.10988
20
-2.98296
11
3.10794
21
-2.97786
0
LINE
8
BLACK
6
CONTINUOUS
10
3.10794
20
-2.97786
11
3.10728
21
-2.97244
0
LINE
8
BLACK
6
CONTINUOUS
10
3.10728
20
-2.97244
11
3.10728
21
-2.69685
0
LINE
8
BLACK
6
CONTINUOUS
10
3.10728
20
-2.69685
11
3.10728
21
-2.69465
0
LINE
8
BLACK
6
CONTINUOUS
10
3.10728
20
-2.69465
11
3.10614
21
-2.69039
0
LINE
8
BLACK
6
CONTINUOUS
10
3.10614
20
-2.69039
11
3.10394
21
-2.68658
0
LINE
8
BLACK
6
CONTINUOUS
10
3.10394
20
-2.68658
11
3.10083
21
-2.68346
0
LINE
8
BLACK
6
CONTINUOUS
10
3.10083
20
-2.68346
11
3.09701
21
-2.68126
0
LINE
8
BLACK
6
CONTINUOUS
10
3.09701
20
-2.68126
11
3.09275
21
-2.68012
0
LINE
8
BLACK
6
CONTINUOUS
10
3.09275
20
-2.68012
11
3.09055
21
-2.68012
0
LINE
8
BLACK
6
CONTINUOUS
10
3.09055
20
-2.68012
11
2.42126
21
-2.68012
0
LINE
8
BLACK
6
CONTINUOUS
10
2.42126
20
-2.68012
11
2.41906
21
-2.68012
0
LINE
8
BLACK
6
CONTINUOUS
10
2.41906
20
-2.68012
11
2.4148
21
-2.68126
0
LINE
8
BLACK
6
CONTINUOUS
10
2.4148
20
-2.68126
11
2.41099
21
-2.68346
0
LINE
8
BLACK
6
CONTINUOUS
10
2.41099
20
-2.68346
11
2.40787
21
-2.68658
0
LINE
8
BLACK
6
CONTINUOUS
10
2.40787
20
-2.68658
11
2.40567
21
-2.69039
0
LINE
8
BLACK
6
CONTINUOUS
10
2.40567
20
-2.69039
11
2.40453
21
-2.69465
0
LINE
8
BLACK
6
CONTINUOUS
10
2.40453
20
-2.69465
11
2.40453
21
-2.69685
0
LINE
8
BLACK
6
CONTINUOUS
10
2.40453
20
-2.69685
11
2.40453
21
-4.87205
0
LINE
8
BLACK
6
CONTINUOUS
10
2.40453
20
-4.87205
11
2.40453
21
-4.87205
0
LINE
8
BLACK
6
CONTINUOUS
10
2.40453
20
-4.87205
11
2.40453
21
-4.87425
0
LINE
8
BLACK
6
CONTINUOUS
10
2.40453
20
-4.87425
11
2.40567
21
-4.87851
0
LINE
8
BLACK
6
CONTINUOUS
10
2.40567
20
-4.87851
11
2.40787
21
-4.88232
0
LINE
8
BLACK
6
CONTINUOUS
10
2.40787
20
-4.88232
11
2.41099
21
-4.88544
0
LINE
8
BLACK
6
CONTINUOUS
10
2.41099
20
-4.88544
11
2.4148
21
-4.88764
0
LINE
8
BLACK
6
CONTINUOUS
10
2.4148
20
-4.88764
11
2.41906
21
-4.88878
0
LINE
8
BLACK
6
CONTINUOUS
10
2.41906
20
-4.88878
11
2.42126
21
-4.88878
0
LINE
8
BLACK
6
CONTINUOUS
10
2.42126
20
-4.88878
11
3.09055
21
-4.88878
0
LINE
8
BLACK
6
CONTINUOUS
10
3.09055
20
-4.88878
11
3.09275
21
-4.88878
0
LINE
8
BLACK
6
CONTINUOUS
10
3.09275
20
-4.88878
11
3.09701
21
-4.88764
0
LINE
8
BLACK
6
CONTINUOUS
10
3.09701
20
-4.88764
11
3.10083
21
-4.88544
0
LINE
8
BLACK
6
CONTINUOUS
10
3.10083
20
-4.88544
11
3.10394
21
-4.88232
0
LINE
8
BLACK
6
CONTINUOUS
10
3.10394
20
-4.88232
11
3.10614
21
-4.87851
0
LINE
8
BLACK
6
CONTINUOUS
10
3.10614
20
-4.87851
11
3.10728
21
-4.87425
0
LINE
8
BLACK
6
CONTINUOUS
10
3.10728
20
-4.87425
11
3.10728
21
-4.87205
0
LINE
8
BLACK
6
CONTINUOUS
10
3.10728
20
-4.87205
11
3.10728
21
-4.87205
0
LINE
8
BLACK
6
CONTINUOUS
10
3.10728
20
-4.87205
11
3.10728
21
-4.58661
0
LINE
8
BLACK
6
CONTINUOUS
10
3.10728
20
-4.58661
11
3.10728
21
-4.58661
0
LINE
8
BLACK
6
CONTINUOUS
10
3.10728
20
-4.58661
11
3.10794
21
-4.5812
0
LINE
8
BLACK
6
CONTINUOUS
10
3.10794
20
-4.5812
11
3.10988
21
-4.57609
0
LINE
8
BLACK
6
CONTINUOUS
10
3.10988
20
-4.57609
11
3.11298
21
-4.5716
0
LINE
8
BLACK
6
CONTINUOUS
10
3.11298
20
-4.5716
11
3.11706
21
-4.56798
0
LINE
8
BLACK
6
CONTINUOUS
10
3.11706
20
-4.56798
11
3.12189
21
-4.56545
0
LINE
8
BLACK
6
CONTINUOUS
10
3.12189
20
-4.56545
11
3.12719
21
-4.56414
0
LINE
8
BLACK
6
CONTINUOUS
10
3.12719
20
-4.56414
11
3.13265
21
-4.56414
0
LINE
8
BLACK
6
CONTINUOUS
10
3.13265
20
-4.56414
11
3.13795
21
-4.56545
0
LINE
8
BLACK
6
CONTINUOUS
10
3.13795
20
-4.56545
11
3.14278
21
-4.56798
0
LINE
8
BLACK
6
CONTINUOUS
10
3.14278
20
-4.56798
11
3.14687
21
-4.5716
0
LINE
8
BLACK
6
CONTINUOUS
10
3.14687
20
-4.5716
11
3.14997
21
-4.57609
0
LINE
8
BLACK
6
CONTINUOUS
10
3.14997
20
-4.57609
11
3.1519
21
-4.5812
0
LINE
8
BLACK
6
CONTINUOUS
10
3.1519
20
-4.5812
11
3.15256
21
-4.58661
0
LINE
8
BLACK
6
CONTINUOUS
10
3.15256
20
-4.58661
11
3.15256
21
-4.87205
0
LINE
8
BLACK
6
CONTINUOUS
10
3.15256
20
-4.87205
11
3.15256
21
-4.87425
0
LINE
8
BLACK
6
CONTINUOUS
10
3.15256
20
-4.87425
11
3.1537
21
-4.87851
0
LINE
8
BLACK
6
CONTINUOUS
10
3.1537
20
-4.87851
11
3.1559
21
-4.88232
0
LINE
8
BLACK
6
CONTINUOUS
10
3.1559
20
-4.88232
11
3.15902
21
-4.88544
0
LINE
8
BLACK
6
CONTINUOUS
10
3.15902
20
-4.88544
11
3.16283
21
-4.88764
0
LINE
8
BLACK
6
CONTINUOUS
10
3.16283
20
-4.88764
11
3.16709
21
-4.88878
0
LINE
8
BLACK
6
CONTINUOUS
10
3.16709
20
-4.88878
11
3.16929
21
-4.88878
0
LINE
8
BLACK
6
CONTINUOUS
10
3.16929
20
-4.88878
11
4.58661
21
-4.88878
0
LINE
8
BLACK
6
CONTINUOUS
10
4.58661
20
-4.88878
11
4.59103
21
-4.88921
0
LINE
8
BLACK
6
CONTINUOUS
10
4.59103
20
-4.88921
11
4.59528
21
-4.8905
0
LINE
8
BLACK
6
CONTINUOUS
10
4.59528
20
-4.8905
11
4.59919
21
-4.89259
0
LINE
8
BLACK
6
CONTINUOUS
10
4.59919
20
-4.89259
11
4.60262
21
-4.89541
0
LINE
8
BLACK
6
CONTINUOUS
10
4.60262
20
-4.89541
11
4.60274
21
-4.89563
0
LINE
8
BLACK
6
CONTINUOUS
10
4.60274
20
-4.89563
11
4.60292
21
-4.89576
0
LINE
8
BLACK
6
CONTINUOUS
10
4.60292
20
-4.89576
11
5.01786
21
-5.46475
0
LINE
8
BLACK
6
CONTINUOUS
10
5.01786
20
-5.46475
11
5.01886
21
-5.46575
0
LINE
8
BLACK
6
CONTINUOUS
10
5.01886
20
-5.46575
11
5.0216
21
-5.46758
0
LINE
8
BLACK
6
CONTINUOUS
10
5.0216
20
-5.46758
11
5.02465
21
-5.46885
0
LINE
8
BLACK
6
CONTINUOUS
10
5.02465
20
-5.46885
11
5.02788
21
-5.46949
0
LINE
8
BLACK
6
CONTINUOUS
10
5.02788
20
-5.46949
11
5.02953
21
-5.46949
0
LINE
8
BLACK
6
CONTINUOUS
10
5.02953
20
-5.46949
11
5.02973
21
-5.46955
0
LINE
8
BLACK
6
CONTINUOUS
10
5.02973
20
-5.46955
11
5.02991
21
-5.46951
0
LINE
8
BLACK
6
CONTINUOUS
10
5.02991
20
-5.46951
11
6.47363
21
-5.65732
0
LINE
8
BLACK
6
CONTINUOUS
10
6.47363
20
-5.65732
11
6.47364
21
-5.65732
0
LINE
8
BLACK
6
CONTINUOUS
10
6.47364
20
-5.65732
11
6.48242
21
-5.65848
0
LINE
8
BLACK
6
CONTINUOUS
10
6.48242
20
-5.65848
11
6.49121
21
-5.66022
0
LINE
8
BLACK
6
CONTINUOUS
10
6.49121
20
-5.66022
11
6.49987
21
-5.66253
0
LINE
8
BLACK
6
CONTINUOUS
10
6.49987
20
-5.66253
11
6.49987
21
-5.66253
0
LINE
8
BLACK
6
CONTINUOUS
10
6.49987
20
-5.66253
11
6.50018
21
-5.66274
0
LINE
8
BLACK
6
CONTINUOUS
10
6.50018
20
-5.66274
11
6.50049
21
-5.6628
0
LINE
8
BLACK
6
CONTINUOUS
10
6.50049
20
-5.6628
11
7.06326
21
-5.98803
0
LINE
8
BLACK
6
CONTINUOUS
10
7.06326
20
-5.98803
11
7.06336
21
-5.98812
0
LINE
8
BLACK
6
CONTINUOUS
10
7.06336
20
-5.98812
11
7.06343
21
-5.98814
0
LINE
8
BLACK
6
CONTINUOUS
10
7.06343
20
-5.98814
11
7.06343
21
-5.98814
0
LINE
8
BLACK
6
CONTINUOUS
10
7.06343
20
-5.98814
11
7.06681
21
-5.99041
0
LINE
8
BLACK
6
CONTINUOUS
10
7.06681
20
-5.99041
11
7.0742
21
-5.99385
0
LINE
8
BLACK
6
CONTINUOUS
10
7.0742
20
-5.99385
11
7.08204
21
-5.99609
0
LINE
8
BLACK
6
CONTINUOUS
10
7.08204
20
-5.99609
11
7.09013
21
-5.99707
0
LINE
8
BLACK
6
CONTINUOUS
10
7.09013
20
-5.99707
11
7.09827
21
-5.99677
0
LINE
8
BLACK
6
CONTINUOUS
10
7.09827
20
-5.99677
11
7.10627
21
-5.9952
0
LINE
8
BLACK
6
CONTINUOUS
10
7.10627
20
-5.9952
11
7.11392
21
-5.99239
0
LINE
8
BLACK
6
CONTINUOUS
10
7.11392
20
-5.99239
11
7.12103
21
-5.98842
0
LINE
8
BLACK
6
CONTINUOUS
10
7.12103
20
-5.98842
11
7.12743
21
-5.98338
0
LINE
8
BLACK
6
CONTINUOUS
10
7.12743
20
-5.98338
11
7.13297
21
-5.97739
0
LINE
8
BLACK
6
CONTINUOUS
10
7.13297
20
-5.97739
11
7.13518
21
-5.97409
0
LINE
8
BLACK
6
CONTINUOUS
10
7.13518
20
-5.97409
11
7.65574
21
-5.07165
0
LINE
8
BLACK
6
CONTINUOUS
10
7.65574
20
-5.07165
11
7.65582
21
-5.07127
0
LINE
8
BLACK
6
CONTINUOUS
10
7.65582
20
-5.07127
11
7.65582
21
-5.07127
0
LINE
8
BLACK
6
CONTINUOUS
10
7.65582
20
-5.07127
11
7.65796
21
-5.06754
0
LINE
8
BLACK
6
CONTINUOUS
10
7.65796
20
-5.06754
11
7.66122
21
-5.05959
0
LINE
8
BLACK
6
CONTINUOUS
10
7.66122
20
-5.05959
11
7.66339
21
-5.05126
0
LINE
8
BLACK
6
CONTINUOUS
10
7.66339
20
-5.05126
11
7.66443
21
-5.04272
0
LINE
8
BLACK
6
CONTINUOUS
10
7.66443
20
-5.04272
11
7.66437
21
-5.03843
0
LINE
8
BLACK
6
CONTINUOUS
10
7.66437
20
-5.03843
11
7.66437
21
-5.03843
0
LINE
8
BLACK
6
CONTINUOUS
10
7.66437
20
-5.03843
11
7.66438
21
-5.0384
0
LINE
8
BLACK
6
CONTINUOUS
10
7.66438
20
-5.0384
11
7.66437
21
-5.03839
0
LINE
8
BLACK
6
CONTINUOUS
10
7.66437
20
-5.03839
11
7.66437
21
-2.69685
0
LINE
8
BLACK
6
CONTINUOUS
10
7.66437
20
-2.69685
11
7.66437
21
-2.69465
0
LINE
8
BLACK
6
CONTINUOUS
10
7.66437
20
-2.69465
11
7.66323
21
-2.69039
0
LINE
8
BLACK
6
CONTINUOUS
10
7.66323
20
-2.69039
11
7.66103
21
-2.68658
0
LINE
8
BLACK
6
CONTINUOUS
10
7.66103
20
-2.68658
11
7.65791
21
-2.68346
0
LINE
8
BLACK
6
CONTINUOUS
10
7.65791
20
-2.68346
11
7.6541
21
-2.68126
0
LINE
8
BLACK
6
CONTINUOUS
10
7.6541
20
-2.68126
11
7.64984
21
-2.68012
0
LINE
8
BLACK
6
CONTINUOUS
10
7.64984
20
-2.68012
11
7.64764
21
-2.68012
0
LINE
8
BLACK
6
CONTINUOUS
10
7.64764
20
-2.68012
11
6.87008
21
-2.68012
0
LINE
8
BLACK
6
CONTINUOUS
10
6.87008
20
-2.68012
11
6.86504
21
-2.67955
0
LINE
8
BLACK
6
CONTINUOUS
10
6.86504
20
-2.67955
11
6.86026
21
-2.67788
0
LINE
8
BLACK
6
CONTINUOUS
10
6.86026
20
-2.67788
11
6.85596
21
-2.67518
0
LINE
8
BLACK
6
CONTINUOUS
10
6.85596
20
-2.67518
11
6.85238
21
-2.67159
0
LINE
8
BLACK
6
CONTINUOUS
10
6.85238
20
-2.67159
11
6.84968
21
-2.6673
0
LINE
8
BLACK
6
CONTINUOUS
10
6.84968
20
-2.6673
11
6.84801
21
-2.66252
0
LINE
8
BLACK
6
CONTINUOUS
10
6.84801
20
-2.66252
11
6.84744
21
-2.65748
0
LINE
8
BLACK
6
CONTINUOUS
10
6.84744
20
-2.65748
11
6.84744
21
-2.60827
0
LINE
8
BLACK
6
CONTINUOUS
10
6.84744
20
-2.60827
11
6.84744
21
-2.60606
0
LINE
8
BLACK
6
CONTINUOUS
10
6.84744
20
-2.60606
11
6.8463
21
-2.60181
0
LINE
8
BLACK
6
CONTINUOUS
10
6.8463
20
-2.60181
11
6.8441
21
-2.59799
0
LINE
8
BLACK
6
CONTINUOUS
10
6.8441
20
-2.59799
11
6.84098
21
-2.59488
0
LINE
8
BLACK
6
CONTINUOUS
10
6.84098
20
-2.59488
11
6.83717
21
-2.59268
0
LINE
8
BLACK
6
CONTINUOUS
10
6.83717
20
-2.59268
11
6.83291
21
-2.59154
0
LINE
8
BLACK
6
CONTINUOUS
10
6.83291
20
-2.59154
11
6.83071
21
-2.59154
0
LINE
8
BLACK
6
CONTINUOUS
10
6.83071
20
-2.59154
11
6.12205
21
-2.59154
0
LINE
8
BLACK
6
CONTINUOUS
10
6.12205
20
-2.59154
11
6.11701
21
-2.59097
0
LINE
8
BLACK
6
CONTINUOUS
10
6.11701
20
-2.59097
11
6.11223
21
-2.58929
0
LINE
8
BLACK
6
CONTINUOUS
10
6.11223
20
-2.58929
11
6.10793
21
-2.5866
0
LINE
8
BLACK
6
CONTINUOUS
10
6.10793
20
-2.5866
11
6.10435
21
-2.58301
0
LINE
8
BLACK
6
CONTINUOUS
10
6.10435
20
-2.58301
11
6.10165
21
-2.57872
0
LINE
8
BLACK
6
CONTINUOUS
10
6.10165
20
-2.57872
11
6.09998
21
-2.57394
0
LINE
8
BLACK
6
CONTINUOUS
10
6.09998
20
-2.57394
11
6.09941
21
-2.5689
0
LINE
8
BLACK
6
CONTINUOUS
10
6.09941
20
-2.5689
11
6.09941
21
-2.5689
0
LINE
8
BLACK
6
CONTINUOUS
10
6.09941
20
-2.5689
11
6.09941
21
-2.50984
0
LINE
8
BLACK
6
CONTINUOUS
10
6.09941
20
-2.50984
11
6.09941
21
-2.50764
0
LINE
8
BLACK
6
CONTINUOUS
10
6.09941
20
-2.50764
11
6.09827
21
-2.50338
0
LINE
8
BLACK
6
CONTINUOUS
10
6.09827
20
-2.50338
11
6.09607
21
-2.49957
0
LINE
8
BLACK
6
CONTINUOUS
10
6.09607
20
-2.49957
11
6.09295
21
-2.49645
0
LINE
8
BLACK
6
CONTINUOUS
10
6.09295
20
-2.49645
11
6.08914
21
-2.49425
0
LINE
8
BLACK
6
CONTINUOUS
10
6.08914
20
-2.49425
11
6.08488
21
-2.49311
0
LINE
8
BLACK
6
CONTINUOUS
10
6.08488
20
-2.49311
11
6.08268
21
-2.49311
0
LINE
8
BLACK
6
CONTINUOUS
10
6.08268
20
-2.49311
11
5.37402
21
-2.49311
0
LINE
8
BLACK
6
CONTINUOUS
10
5.37402
20
-2.49311
11
5.36898
21
-2.49254
0
LINE
8
BLACK
6
CONTINUOUS
10
5.36898
20
-2.49254
11
5.36419
21
-2.49087
0
LINE
8
BLACK
6
CONTINUOUS
10
5.36419
20
-2.49087
11
5.3599
21
-2.48817
0
LINE
8
BLACK
6
CONTINUOUS
10
5.3599
20
-2.48817
11
5.35632
21
-2.48459
0
LINE
8
BLACK
6
CONTINUOUS
10
5.35632
20
-2.48459
11
5.35362
21
-2.48029
0
LINE
8
BLACK
6
CONTINUOUS
10
5.35362
20
-2.48029
11
5.35195
21
-2.47551
0
LINE
8
BLACK
6
CONTINUOUS
10
5.35195
20
-2.47551
11
5.35138
21
-2.47047
0
LINE
8
BLACK
6
CONTINUOUS
10
5.35138
20
-2.47047
11
5.35138
21
-2.42126
0
LINE
8
BLACK
6
CONTINUOUS
10
5.35138
20
-2.42126
11
5.35138
21
-2.41906
0
LINE
8
BLACK
6
CONTINUOUS
10
5.35138
20
-2.41906
11
5.35024
21
-2.4148
0
LINE
8
BLACK
6
CONTINUOUS
10
5.35024
20
-2.4148
11
5.34803
21
-2.41099
0
LINE
8
BLACK
6
CONTINUOUS
10
5.34803
20
-2.41099
11
5.34492
21
-2.40787
0
LINE
8
BLACK
6
CONTINUOUS
10
5.34492
20
-2.40787
11
5.3411
21
-2.40567
0
LINE
8
BLACK
6
CONTINUOUS
10
5.3411
20
-2.40567
11
5.33685
21
-2.40453
0
LINE
8
BLACK
6
CONTINUOUS
10
5.33685
20
-2.40453
11
5.33465
21
-2.40453
0
LINE
8
BLACK
6
CONTINUOUS
10
5.33465
20
-2.40453
11
4.66535
21
-2.40453
  0
ENDSEC
  0
EOF
